<?xml version="1.0" encoding="UTF-8"?> <!-- Generator: Adobe Illustrator 25.0.0, SVG Export Plug-In . SVG Version: 6.00 Build 0) --> <svg xmlns="http://www.w3.org/2000/svg" xmlns:xlink="http://www.w3.org/1999/xlink" version="1.1" id="Layer_1" x="0px" y="0px" viewBox="0 0 750 750" style="enable-background:new 0 0 750 750;" xml:space="preserve"> <style type="text/css"> .st0{fill:#1A1818;} .st1{fill:url(#SVGID_1_);} .st2{fill:url(#SVGID_2_);} .st3{fill:#FFFFFF;} </style> <g> <circle class="st0" cx="375" cy="375" r="370.3"></circle> <linearGradient id="SVGID_1_" gradientUnits="userSpaceOnUse" x1="12.6759" y1="435.1927" x2="725.4689" y2="316.9569"> <stop offset="0" style="stop-color:#DEDBD7"></stop> <stop offset="0" style="stop-color:#D5D1CE"></stop> <stop offset="3.689130e-02" style="stop-color:#C6C3C1"></stop> <stop offset="0.1077" style="stop-color:#9F9F9E"></stop> <stop offset="0.2043" style="stop-color:#616667"></stop> <stop offset="0.2638" style="stop-color:#373F42"></stop> <stop offset="0.2748" style="stop-color:#3E4649"></stop> <stop offset="0.3796" style="stop-color:#808587"></stop> <stop offset="0.4678" style="stop-color:#B0B3B5"></stop> <stop offset="0.5348" style="stop-color:#CECFD1"></stop> <stop offset="0.5728" style="stop-color:#D9DADB"></stop> <stop offset="0.6192" style="stop-color:#CFD1D2"></stop> <stop offset="0.6973" style="stop-color:#B5B7BA"></stop> <stop offset="0.797" style="stop-color:#8B8E92"></stop> <stop offset="0.8745" style="stop-color:#65696F"></stop> <stop offset="1" style="stop-color:#A5AAB2"></stop> </linearGradient> <path class="st1" d="M636,123.6c-3.9-4-7.9-8-11.9-12c-4.1-3.9-8.4-7.7-12.7-11.6c-11.9-10.1-24.2-20.1-37.7-28.7l-5-3.4l-5.2-3.1 c-3.5-2.1-6.9-4.2-10.4-6.2c-7.1-3.8-14.2-7.8-21.5-11.2c-7.2-3.7-14.8-6.7-22.3-9.8c-3.8-1.5-7.6-2.8-11.4-4.2 c-1.9-0.7-3.8-1.4-5.7-2.1l-5.8-1.8c-15.4-5-31.3-8.6-47.1-11.2c-22.7-3.9-47.9-5.5-73-4.1c-2.7,0-6.1,0.3-9.8,0.6 c-3.7,0.3-7.8,0.6-11.8,1c-8,1-15.7,1.8-20,2.3c37.4-6.3,75.9-6.7,113.3-0.5c18.7,3,37.2,7.6,55.2,13.5 c17.9,6.1,35.4,13.7,52.1,22.6c-1.8-1-3.5-2-5.3-3c-1.9-1-4-2-6.7-3.3c1.4,0.5,2.7,1.1,2.7,1.1s-1.7-0.8-4.3-2.1 c-2.6-1.2-6-3.1-9.6-4.5c2.5,0.9,6.4,2.9,10.9,5c2.2,1.1,4.5,2.2,6.8,3.3c2.2,1.2,4.4,2.4,6.5,3.5c8.2,4.3,13.4,7.6,7.4,4 c-14.7-8.6-30.2-16-46.1-22.5c-16-6.4-32.6-11.4-49.6-15.4c-2.9-0.7-5.8-1.3-8.6-2l-4.3-1l-4.4-0.8c2.6,0.5,5.3,1,7.9,1.7 c-3-0.7-6.2-1.2-9.3-1.7c-3.1-0.5-6.2-1-9.4-1.5c-6.9-1.1-13.8-1.9-20.8-2.5c1,0.1,1.9,0.2,2.9,0.3C394,10,378.1,8.9,356.7,9.4 c-3.6,0.2-7.2,0.3-10.9,0.5c-3.6,0.3-7.3,0.7-11,1c-1.8,0.2-3.7,0.4-5.6,0.5c-1.8,0.3-3.7,0.5-5.6,0.8c-3.7,0.5-7.5,1.1-11.2,1.6 c-3.7,0.7-7.5,1.5-11.2,2.2l-5.6,1.1l-5.6,1.4c-3.7,0.9-7.5,1.9-11.3,2.8c-3.7,1.1-7.4,2.2-11.2,3.4c-3.8,1.1-7.4,2.4-11.1,3.7 c-3.7,1.3-7.4,2.5-11,4c-7.2,3-14.5,5.8-21.6,9.2c-14.3,6.4-27.8,14.1-40.8,22.1c-18.7,11.6-36.4,25.1-52.8,40.2 C113.9,119,98.7,135.8,85.1,154C58,190.4,37.5,232.6,25.8,278c-11.7,45.3-14.7,93.6-8,141.4c6.6,47.7,23.1,94.8,48.7,137.1 c0.6,1.1,1.3,2.3,2.1,3.6c0.8,1.3,1.7,2.8,2.7,4.3c2,3.1,4.2,6.5,6.6,10.1c2.5,3.6,5.2,7.1,7.9,10.7c1.4,1.8,2.7,3.5,4,5.2 c1.4,1.6,2.8,3.2,4.2,4.7c-38.3-49.4-63-107.3-72.6-166.3c-0.7-3.7-1.2-7.4-1.6-11.1l-1.4-11.1l-0.9-11.1l-0.4-5.5l-0.2-5.6 l-0.4-11.1c0-3.7,0.1-7.4,0.1-11.1c0-7.4,0.6-14.7,1-22.1c2.3-29.3,8.3-58,17.3-85.5c9.2-27.5,21.6-53.6,36.8-77.9 c15.3-24.2,33.5-46.4,53.8-66.2c20.3-19.8,43-37,67.4-51.4c3.1-1.8,6-3.7,9.2-5.3l9.4-4.9l4.7-2.5l4.8-2.2l9.6-4.5 c3.2-1.4,6.5-2.7,9.8-4c3.3-1.3,6.5-2.8,9.8-3.9c6.7-2.3,13.3-4.8,20.1-6.7c43-12.9,88.9-17.6,133.4-13.9 C344.5,6.7,284,17,229.3,41.8c-62.8,28.4-117.7,75.7-155,135.4c-37.5,59.5-57.1,131.1-54.8,203.2c0.1,9,1,18,1.7,27l1.7,13.5 l0.4,3.4l0.6,3.3l1.2,6.7c3.2,17.8,7.6,35.6,13.6,52.8c11.7,34.6,28.8,67.7,50.5,97.7c5.5,7.7,11.4,15.2,17.6,22.6 c-0.8-0.5-1.8-1.2-2.8-2c-2.8-2.3-6.1-5.9-10-10.1c3.1,3.9,6.1,7.9,9.3,11.7c3.3,3.8,6.6,7.6,9.9,11.4 c31.1,34.4,70.4,63.7,114.8,84c-19-9.6-36.9-20.8-53.8-33.3c1.5,1,2.9,2.1,4.4,3.1c17.6,11.8,36.3,22.1,55.7,30.4 c19.5,8.3,39.6,14.7,59.9,19.1c3.5,0.7,7.2,1.5,11.1,2.5c4,0.8,8.1,1.6,12.5,2.6c4.3,1,8.8,1.8,13.4,2.6c4.6,0.8,9.2,1.8,13.9,2.3 c18.7,3,37.7,3.8,52,2.9c32.1-1.9,64.5-7.1,95.9-16.8c15.7-4.6,31.1-10.6,46.1-17.2c7.4-3.5,14.9-6.8,22.1-10.9 c3.6-2,7.2-3.8,10.8-5.9c3.5-2.1,7-4.2,10.5-6.3c1.7-1.1,3.5-2.1,5.2-3.2l5.1-3.4c3.4-2.3,6.7-4.6,10.1-6.9 c3.2-2.4,6.5-4.9,9.7-7.3c3.2-2.4,6.4-4.9,9.5-7.5c3.1-2.6,6.1-5.2,9.2-7.8c3.1-2.6,5.9-5.4,8.8-8.2c2.9-2.8,5.8-5.5,8.6-8.3 c2.7-2.9,5.4-5.8,8.1-8.7c21.4-23.2,38.7-49.4,51.2-76.2c7.9-12.9,14.6-26.6,20.9-40.4c-9.1,15.6-18.3,32.8-26.7,46.9 c-1.1,1.6-2.2,2.9-3.2,3.8c-2.3,4.5-3.5,6.7-4.6,8.9c-13.4,16.4-29.3,35.9-48.8,55.6c-9.6,9.9-20.3,19.7-31.6,29.5 c-2.8,2.4-5.8,4.7-8.8,7.1c-3,2.3-5.9,4.9-9,7.1c-6.3,4.5-12.4,9.3-19.1,13.5c-3.3,2.2-6.6,4.3-9.9,6.5c-3.4,2-6.8,4-10.3,6.1 l-5.2,3c-1.7,1-3.5,1.9-5.3,2.8c-3.6,1.9-7.1,3.7-10.7,5.6c-14.5,6.9-29.3,13.5-44.6,18.5c-30.3,10.5-61.6,16-90.8,17.5 c-2.1,0.1-4.2,0.2-6.3,0.3l-6.3,0c-4.2,0-8.4,0.1-12.5-0.1c-8.3-0.4-16.7-0.6-24.9-1.6c-16.6-1.4-32.9-4.4-49-8.1 c1.4,0.2,3,0.4,4.6,0.5c1.6,0.1,3.3,0.2,5.1,0.4c3.5,0.3,7.3,0.5,11.2,0.8c3.9,0.2,7.8,0.4,11.8,0.6c3.9,0.3,7.8,0.5,11.4,0.8 c35.2,3.4,72.7,2.1,108.6-5.2c18-3.4,35.4-8.6,52-14.8c16.6-6,32.1-13.8,46.3-22c-15.1,6.8-30.2,12.4-45.8,17 c-7.7,2.5-15.7,4.4-23.8,6.6c-4,1.1-8.2,1.9-12.3,2.9c-2.1,0.5-4.1,1-6.2,1.5c-2.1,0.4-4.2,0.9-6.4,1.3c-4.2,0.8-8.7,2.1-13.3,3.2 c-4.7,1.1-9.5,2.3-14.3,3.5c-9.7,2-19.3,3.8-27.5,3.8c-21.3,0.8-41.5,0.2-61-1.6c-19.5-2-38.3-5.3-56.5-10 c-18.3-4.6-36-11-53.3-18.9c-8.7-3.8-17.1-8.5-25.6-13.2c-4.1-2.6-8.3-5.1-12.4-7.7c-4.2-2.6-8.1-5.6-12.2-8.5 c-1.7-1.2-3.1-2.3-4.4-3.5c-1.3-1.2-2.4-2.4-3.6-3.6c-1.7-1.8-3.5-3.5-5.6-5.2c35.9,27,75.5,45.2,116.9,56 c42.3,11,86.7,14.5,133.3,10.1c3.8-0.2,7.3-0.5,10.8-0.7c3.4-0.4,6.7-0.7,9.9-1.1c3.2-0.4,6.4-0.6,9.5-1.1c3.1-0.5,6.2-1,9.4-1.5 c12.9-3.5,24.6-7.4,34.7-10.6c27.3-8.4,47.4-18.9,63.4-29.2c2-1.3,4-2.6,5.9-3.8c1.9-1.4,3.7-2.7,5.5-4c3.5-2.7,7-5.2,10.2-7.8 c6.3-5.5,12.4-10.4,18-16c2.8-2.7,5.6-5.4,8.4-8.2c2.7-2.8,5.5-5.7,8.3-8.6c1.4-1.4,2.8-2.9,4.3-4.4c1.4-1.5,2.8-3.1,4.2-4.6 c2.9-3.1,5.8-6.3,8.9-9.6c12.1-13.5,25.8-29.1,42.2-50.2c-3.7,4.9-7.3,10.4-11.5,15.9c-2,2.8-4.1,5.7-6.2,8.6 c-2.2,2.8-4.4,5.7-6.7,8.7c-4.4,6-9.3,11.7-14.1,17.7c-2.3,3-5,5.8-7.5,8.7c-2.5,2.9-5.1,5.7-7.6,8.6c-10.4,11-20.8,21.5-30.7,30.1 c-4.9,4.3-9.6,8.5-14,11.9c-4.4,3.4-8.3,6.8-11.9,9.3c14.2-8.6,31.4-20.5,48.7-35.6c17.3-15.1,34.7-33.5,50-53.9 c15.4-20.3,28.6-42.5,39-64.2c10.5-21.7,18.1-42.9,23.9-61.1c6.9-22.2,9.5-38.8,11.3-51.8c0.6-6.6,1.2-12.2,1.4-17.5 c0.1-5.2,0.1-10,0.1-14.6c-0.4-9.3-1-18.2-2.5-29.8c-1.4-11.5-3.5-25.7-7.7-45.2c-1.5-8.5-8.7-30.3-19.6-52.4 c-5.4-11.1-11.8-22.2-18.1-32.3c-1.5-2.6-3.2-4.9-4.7-7.3c-1.6-2.3-3.1-4.6-4.5-6.8c-1.4-2.2-2.9-4.3-4.3-6.3 c-1.4-2-2.7-3.9-3.9-5.6c29,49.8,43.4,91.5,46.9,121.6c4.9,23.9,7.2,50.2,6.2,76.3c-0.8,26.1-5.2,51.9-11.4,74.7 c-6.2,22.8-14.2,42.6-21.5,57.7c-1.9,3.7-3.7,7.2-5.4,10.3c-1.7,3.2-3.2,6.1-4.7,8.5c-3,5-5.3,8.7-6.8,11c-1.5,2.3-2.2,3-1.9,2.1 c0.4-0.8,1.7-3.4,4-7.9c1.2-2.2,2.6-5,4.3-8.2c1.7-3.3,3.4-7.2,5.5-11.5c2.2-4.3,4.2-9.4,6.6-15c2.5-5.6,4.7-12,7.2-18.9 c4.7-14,9.9-30.8,13.6-50.8c3.6-20,6.3-43.1,5.7-69.3c-0.3-6.5-0.3-13.3-1-20.1c-0.3-3.4-0.6-6.9-0.9-10.5c-0.5-3.5-1-7.1-1.4-10.7 c-0.3-1.8-0.5-3.6-0.8-5.4c-0.3-1.8-0.7-3.6-1-5.5c-0.7-3.7-1.3-7.4-2.1-11.2c-1.8-7.5-3.4-15.1-5.8-22.8 c-2.1-7.8-4.9-15.5-7.7-23.5c-1.6-3.9-3.1-7.9-4.7-11.9c-1.5-4-3.6-7.9-5.3-11.9c-7.5-16-16.5-32-27.4-47.8 c1.6,3.3,8.3,14.4,15.9,30.2c7.6,15.8,15.5,36.4,21,57.5c5.6,21.1,8.6,42.5,9.6,59c0.1,2.1,0.3,4,0.4,5.9c0,1.9,0.1,3.7,0.1,5.4 c0,3.4,0.1,6.4,0.1,9c-0.2,5.1-0.5,8.3-0.7,9c-0.5,0.6-0.8-3.1-1.2-9.7c-0.3-3.3-0.6-7.5-1-12.2c-0.3-4.7-1.1-10.1-1.7-16 c-0.3-2.9-0.9-6-1.3-9.1c-0.5-3.1-0.9-6.4-1.6-9.8c-1.4-6.6-2.6-13.7-4.6-20.9c-1-3.6-1.7-7.3-2.9-10.9c-1.1-3.6-2.2-7.3-3.3-11.1 c-1.2-3.7-2.6-7.4-3.9-11.1c-0.7-1.8-1.3-3.7-2-5.5l-2.3-5.5c-11.6-29.3-28.4-56-42.5-74.2c-7.1-9-13.3-16.2-17.8-20.7 c-4.4-4.6-6.8-6.9-6.6-6.2c0.5,1.5,2.2,4.3,4.7,8.2c1.3,1.9,2.7,4.1,4.3,6.5c1.5,2.5,3.2,5.2,5,8.1c0.9,1.4,1.9,2.9,2.9,4.4 c1,1.5,1.8,3.2,2.8,4.8c1.9,3.3,4,6.7,6,10.3c1.9,3.6,3.9,7.3,5.9,11.1c2,3.8,3.8,7.8,5.7,11.7c7.4,15.8,13.6,32.4,18,46.4 c1,3.5,2,6.9,2.9,10c0.5,1.6,0.9,3.1,1.3,4.5c0.4,1.5,0.7,2.8,1,4.2c1.3,5.3,2.5,9.4,3.1,12.1c3,7.7,4.2,14.5,7.7,16.6 c0.6,3.6,1.3,7.1,1.9,10.5c0.5,3.5,1,6.9,1.5,10.2c0.3,1.7,0.5,3.4,0.8,5c0.2,1.7,0.4,3.3,0.6,5c0.4,3.3,0.8,6.7,1.2,10 c0.3,3.4,0.6,6.7,0.8,10.1c0.1,1.7,0.3,3.4,0.4,5.1c0.1,1.7,0.1,3.5,0.2,5.2c0.1,3.5,0.3,7.1,0.3,10.8c-0.1,3.7-0.1,7.4-0.2,11.3 c-0.6,39.4-7.2,79.4-22.9,117.3c-15.6,37.7-40.7,73-74.9,99.8c-1.4,1.1-3.3,2.9-5.3,5c-2.1,2.1-4.2,4.7-6.7,7.1 c-4.8,4.8-9.5,10.1-13,12.9l-9.7,7c-3.3,2.2-6.7,4.3-10.1,6.4c-1.7,1-3.4,2.1-5.1,3.1l-5.2,2.9c-3.5,1.8-7,3.9-10.6,5.6 c-14.3,7.1-29.2,12.8-44.4,17.7c-15.2,4.8-30.8,8.4-46.5,11.5c-15.8,2.8-31.7,4.8-47.9,6.2c-19.9,1.3-40.3-0.4-60.3-3.9 c-20-3.5-39.5-8.8-58.4-14.6c-45.4-13.1-87.5-38-122.1-71.1c-34.7-33.1-62.4-74-80.1-119.6c-1.1,2.1-4.4-4.4-7.8-12.8 c-1.5-4.3-3-9-4.4-13.3c-1.3-4.3-2.2-8.3-2.9-10.9C41,392.5,39.8,341,48.6,293.2c8.9-47.9,28.4-92.1,54.2-128.9 c12.5-18.5,26.6-35.3,42.2-50.8C160.7,98,178,83.9,197.3,71.3c39-25.5,80.4-41,122.5-49c42.1-7.9,85.3-8.3,129.4-0.2 c3.6,0.7,7.1,1.4,10.6,2l10.5,2.5c7.1,1.5,13.9,3.9,20.8,5.8c13.7,4.6,27.3,9.6,40.5,15.9C558.3,60.7,583.8,77,608,97.3 C626,112,645.4,133.9,636,123.6z M238,682.8l4.7,2c1.6,0.6,3.2,1.2,4.8,1.8l9.5,3.6c3.1,1.3,6.4,2.1,9.6,3.2c3.2,1,6.4,2.1,9.7,3 c13,3.6,26.1,6.7,39.3,8.8c26.4,4.3,52.9,5.6,79,3.9c26.1-1.8,51.7-6.5,76.2-13.9c-17.5,6.9-39.2,12.6-63.5,15.4 c-24.4,2.8-51.4,2.8-79.4-1c-28-3.8-56.6-11.7-84.2-23c-14.4-6.1-28.4-13.2-41.9-21.1c-0.4-0.2-0.7-0.4-1.1-0.7 c-1.1-0.6-2.4-1.4-3.8-2.2c-1.4-0.8-2.8-1.8-4.5-2.9c-2.1-1.4-4.4-2.9-7-4.5c-0.3-0.2-0.5-0.3-0.8-0.5c-1.2-0.8-2.4-1.5-3.6-2.4 c-1-0.7-2-1.4-3-2.2c-3.8-2.7-7.6-5.4-11.3-8.2c-32.6-24.4-61.1-55-83.6-89.8c0.8,1.2,1.6,2.3,2.3,3.4c1.8,2.6,3.3,4.7,4.3,6 c10.2,14.4,20.6,27.3,31.1,38.5c2.6,2.8,5.1,5.6,7.7,8.2c2.6,2.6,5.2,5.1,7.7,7.5c1.3,1.2,2.5,2.4,3.7,3.6c1.3,1.1,2.6,2.3,3.8,3.4 c2.5,2.2,5,4.4,7.3,6.5c12.5,10.7,23.9,18.9,33,25C201.3,665.4,219.4,675,238,682.8z M260.6,33.2c-4.4,1.7-8.8,3.3-13.1,5.1 c-4.3,1.9-8.6,3.7-12.9,5.6c-8.4,4.1-16.8,8.1-24.7,12.7l-6,3.4l-5.9,3.6l-5.9,3.6l-2.9,1.8l-2.8,2c-3.8,2.6-7.5,5.2-11.3,7.8 c-3.6,2.8-7.2,5.5-10.8,8.3c-3.1,2.2-5.9,4.6-8.8,7c-2.9,2.4-5.8,4.7-8.6,7.2c-2.8,2.5-5.5,5-8.3,7.5l-4.1,3.8l-3.9,3.9 c-2.6,2.6-5.2,5.3-7.9,7.9c-2.6,2.7-5,5.5-7.5,8.2c-5.1,5.4-9.6,11.2-14.4,16.9c-2.4,2.8-4.5,5.9-6.7,8.8c-2.2,3-4.5,5.9-6.5,9 c-4.1,6.2-8.4,12.2-12.1,18.7c-7.9,12.6-14.5,26-20.8,39.7c-12,27.5-21.1,57-25.6,88.1c-1.4,7.7-1.9,15.6-2.8,23.6 c-0.3,4-0.4,8-0.7,12l-0.3,6l0,6.1c-0.3,16.2,1,32.6,3.3,49.2c-3.4-25.7-3.3-49.6-1.1-71.6c2.2-22.1,6.6-42.5,12.4-61.9 c-10.3,39.1-13.8,80-10.4,120.8c0.3,2.6,0.7,5.2,1,7.8c0.4,2.5,0.9,5.1,1.3,7.6c0.8,5,1.5,9.8,2.4,14.5c0.7,3.8,1.4,7.5,2.1,11.3 c0.9,3.7,1.8,7.4,2.7,11.2c4.5,21.3,10.5,41.6,18.9,61.7c43.8,102.2,135.1,180.5,247.3,210.2c-43.7-10-85.1-28-121.5-52.5 c-18.2-12.2-35.3-26.1-50.9-41.2c-15.5-15.2-29.6-31.7-42.1-49.2c-12.5-17.5-23.5-35.9-32.7-55.2c-9.1-19.3-16.5-39.2-22-59.6 c-11.1-40.7-15.1-82.9-11.7-124.3c3.4-41.4,13.8-81.8,30.6-119.1c16.7-37.4,40.2-71.4,68.3-100.7c3.6-3.6,7.1-7.3,10.8-10.7 l11.2-10.3l11.7-9.7c1.9-1.7,3.9-3.2,6-4.7l6.1-4.6c16.3-12,33.6-22.6,51.7-31.7c36.1-18.2,75.5-29.7,115.8-34.6 C310.9,17.6,285.4,23.8,260.6,33.2z M205.8,667.8c-1-0.6-2.3-1.3-4-2.3c-5.6-3.3-11-6.7-16.4-10.2c-0.3-0.2-0.5-0.3-0.8-0.5 c-2.2-1.5-4.4-3-6.6-4.6c-3.4-2.5-7.2-5.2-11.3-8.2c5.7,4.2,11.5,8.3,17.5,12.2c4.9,3.3,9.2,6.1,12.7,8.3 C207,668.4,210.5,670.5,205.8,667.8z M373.4,740.7c-52.4-2.3-101.8-16.3-145.4-38.4c44.4,20.5,93.8,32,143.5,33.5 c17.7,0.7,37.6,0.6,57.1-1.2c19.5-1.8,38.6-4.5,54.8-7.4c-17.5,4.5-35.6,7.8-54,10.3C410.9,739.8,392.1,740.8,373.4,740.7z"></path> <linearGradient id="SVGID_2_" gradientUnits="userSpaceOnUse" x1="71.0056" y1="423.7672" x2="652.05" y2="313.4138"> <stop offset="0" style="stop-color:#DEDBD7"></stop> <stop offset="0" style="stop-color:#D5D1CE"></stop> <stop offset="3.689130e-02" style="stop-color:#C6C3C1"></stop> <stop offset="0.1077" style="stop-color:#9F9F9E"></stop> <stop offset="0.2043" style="stop-color:#616667"></stop> <stop offset="0.2638" style="stop-color:#373F42"></stop> <stop offset="0.2748" style="stop-color:#3E4649"></stop> <stop offset="0.3796" style="stop-color:#808587"></stop> <stop offset="0.4678" style="stop-color:#B0B3B5"></stop> <stop offset="0.5348" style="stop-color:#CECFD1"></stop> <stop offset="0.5728" style="stop-color:#D9DADB"></stop> <stop offset="0.6192" style="stop-color:#CFD1D2"></stop> <stop offset="0.6973" style="stop-color:#B5B7BA"></stop> <stop offset="0.797" style="stop-color:#8B8E92"></stop> <stop offset="0.8745" style="stop-color:#65696F"></stop> <stop offset="1" style="stop-color:#A5AAB2"></stop> </linearGradient> <path class="st2" d="M165.5,203.5l-18.6,3.3l-1.3,103.9l16.9-3l-0.4-20.5l15.9-2.8l6.8,19.3l17.5-3.1L165.5,203.5z M161.9,271 l-0.4-34l11.1,32.1L161.9,271z M207.6,299.8l-17.7-100.2l17.3-3.1L226,231l5.9-38.8l17.3-3.1l17.7,100.2l-16.8,3l-10.7-60.6 l-6.1,40.2l-0.3,0.1l-19.4-35.7l10.7,60.6L207.6,299.8z M277.2,287.5l-17.7-100.2l38.4-6.8l2.9,16.6l-20.9,3.7l4.4,24.9l18.5-3.3 l2.9,16.6l-18.5,3.3l4.5,25.5l21.3-3.8l2.9,16.6L277.2,287.5z M341.9,276.1l-6.2-34.9l3-0.5c0,0,0.1,0,0.3,0l17.5,32.9l18.6-3.3 l-20.6-38.3c5.7-6.2,9.4-15.4,7.1-28.4l-0.2-1.3c-4-22.5-18.7-29.6-36.6-26.5l-18,3.2l17.7,100.2L341.9,276.1z M327.5,192.1 c7.6-1.3,14.2,0.9,16.4,13.5l0.2,1.1c2.1,11.7-2.7,17.2-10.3,18.5l-0.9,0.2l-5.9-33.2L327.5,192.1z M381.7,269.1L364,168.8 l17.5-3.1L399.2,266L381.7,269.1z M399.5,216c6.2,34.9,20.8,47,36.9,44.1c2.6-0.5,5.4-1.2,7.9-2.1v0l16.9-3l-0.4-20.5l15.9-2.8 l6.8,19.3L501,248l-36.8-97.2l-18.6,3.3l-1.1,84.5c-2.8,2.2-5.6,3.5-8,3.9c-8,1.4-14.6-3-19.2-29.5l-0.7-3.7 c-4.4-25.1,0-32.9,7.7-34.3c3.3-0.6,6.4,0.1,10.3,1.6l-3.2-18c-4-1.1-7-1.1-11.9-0.3c-16.3,2.9-26.9,19.1-20.7,54.3L399.5,216z M471.4,216.5l-10.7,1.9l-0.4-34L471.4,216.5z M506.3,247.1l-17.7-100.2L505,144l26.6,47.6l-8.9-50.7l17-3l17.7,100.2l-15.5,2.7 L514,191l9.4,53.1L506.3,247.1z M201,474.6l-1.5,121.2l19.7-3.5l-0.4-23.9l18.5-3.3l7.9,22.5l20.4-3.6l-42.9-113.4L201,474.6z M218.6,549.6l-0.5-39.7l13,37.5L218.6,549.6z M339.1,450.6l3,120.4l-21.4,3.8l-21.9-67.6l2.5,71.1l-21.4,3.8l-38.4-114.2l20.9-3.7 l21.2,70.2l-2.4-73.5l18.9-3.3l22.7,69.9l-4-73.2L339.1,450.6z M357.3,447.1l-1.5,121.2l19.7-3.5l-0.4-23.9l18.5-3.3l7.9,22.5 l20.4-3.6L379,443.2L357.3,447.1z M374.8,522l-0.5-39.7l13,37.5L374.8,522z M471.4,467.3l-0.3-1.5c-4.6-26.2-21.8-34.6-42.7-30.9 l-21.1,3.7l20.6,117l20.4-3.6l-7.2-40.8l3.5-0.6c0,0,0.2,0,0.3-0.1l20.4,38.4l21.7-3.8l-24.1-44.7 C469.8,493.2,474.1,482.5,471.4,467.3z M439,492.6l-1,0.2l-6.8-38.8l0.5-0.1c8.9-1.6,16.6,1,19.1,15.8l0.2,1.3 C453.5,484.7,447.9,491.1,439,492.6z M543.9,472.8c-6.6-37.6-24.8-53.9-50.9-49.3l-19,3.4l20.6,117l19-3.4 c26.1-4.6,37.6-26.1,31-63.7L543.9,472.8z M512.5,521.4l-0.8,0.1l-14-79.5l0.8-0.1c9.7-1.7,19.5,5.3,24.7,34.6l0.7,4 C529,509.7,522.2,519.7,512.5,521.4z M582.1,529.2c-8,1.4-15.2,0.6-21.6-1.2l-3.7-21.2c7.9,2.9,14,4.2,19.5,3.3 c5.8-1,10.4-4.8,9.1-11.9l-0.1-0.3c-0.9-5.3-3.3-9.1-15-18.4c-16.6-13.3-23.6-19.8-26.1-34l-0.1-0.3c-3.3-18.7,6.8-32.7,23-35.6 c8.2-1.4,13.2-1.1,18.7,0.5l3.7,21.2c-7-2.6-11.1-3.6-16.5-2.6c-5.7,1-9.9,5.5-8.8,11.9l0.1,0.3c1,5.5,3,7.2,14.7,16.7 c19.3,15.7,24.1,22.3,26.4,35.7l0.1,0.3C608.9,511.9,598.1,526.4,582.1,529.2z"></path> <g> <polygon class="st3" points="264.6,419.3 246.5,316.5 225,320.2 246.8,443.5 291,435.7 287.4,415.3 "></polygon> <polygon class="st3" points="223.2,373.6 202.7,377.2 197.3,346.2 220.7,342.1 217.1,321.6 172.2,329.6 193.9,452.9 215.4,449.1 206.3,397.6 226.8,394 "></polygon> <rect x="76.5" y="345.5" transform="matrix(0.9848 -0.1737 0.1737 0.9848 -69.5342 21.3785)" class="st3" width="21.8" height="125.2"></rect> <polygon class="st3" points="140.3,335.2 151.3,397.5 118.6,339 98.6,342.5 120.3,465.8 141.3,462.1 129.7,396.8 164,458.1 183,454.8 161.3,331.5 "></polygon> <path class="st3" d="M335.3,300.8l-21.3,3.8l15.8,89.5c2,11.1-1.1,16.2-6.6,17.1c-5.5,1-10.1-2.8-12.1-13.9l-15.8-89.5l-21.3,3.8 l15.4,87.4c4.6,25.9,19.6,35.2,37.3,32.1c17.6-3.1,28.6-17,24-42.9L335.3,300.8z"></path> <path class="st3" d="M629.3,331.8l21.5,40.5l22.9-4l-25.4-47.1c7-7.6,11.6-18.9,8.7-35l-0.3-1.6c-4.9-27.7-23-36.5-45-32.6 l-22.2,3.9l21.7,123.3l21.5-3.8l-7.6-43l3.7-0.7C628.9,331.8,629.1,331.8,629.3,331.8z M622.9,312.9l-1.1,0.2l-7.2-40.9l0.5-0.1 c9.3-1.6,17.4,1.1,20.2,16.6l0.3,1.4C638.2,304.6,632.3,311.3,622.9,312.9z"></path> <path class="st3" d="M530.5,372.8c-9.9,1.7-17.9-3.7-23.7-36.3l-0.8-4.6c-5.4-30.8-0.1-40.5,9.5-42.2c4.1-0.7,7.8,0.1,12.7,1.9 l-3.9-22.2c-5-1.3-8.6-1.4-14.6-0.3c-20.1,3.5-33.1,23.5-25.5,66.8l0.7,4.2c7.6,43,25.6,57.8,45.4,54.3c6.2-1.1,10.8-2.8,15.2-6.5 l-3.7-21.1C537.8,370.2,533.8,372.2,530.5,372.8z"></path> <polygon class="st3" points="385.5,398 379.9,366.7 402.7,362.7 399.1,342.2 376.3,346.2 370.9,315.6 396.6,311 393,290.6 345.8,298.9 367.6,422.2 415.3,413.8 411.7,393.4 "></polygon> <polygon class="st3" points="572.9,365 567.3,333.6 590.1,329.6 586.5,309.2 563.7,313.2 558.3,282.5 584,278 580.4,257.6 533.2,265.9 555,389.2 602.7,380.8 599.1,360.3 "></polygon> <polygon class="st3" points="443.9,281.6 454.9,344 422.3,285.5 402.2,289 423.9,412.3 444.9,408.6 433.4,343.3 467.6,404.6 486.6,401.2 464.9,278 "></polygon> </g> </g> </svg> 