<?xml version="1.0" encoding="UTF-8"?> <!-- Generator: Adobe Illustrator 25.0.0, SVG Export Plug-In . SVG Version: 6.00 Build 0) --> <svg xmlns="http://www.w3.org/2000/svg" xmlns:xlink="http://www.w3.org/1999/xlink" version="1.1" x="0px" y="0px" viewBox="0 0 284.1 288" style="enable-background:new 0 0 284.1 288;" xml:space="preserve"> <style type="text/css"> .st0{fill:none;} .st1{fill:#FFFFFF;} .st2{fill:#3A1E81;} </style> <g id="clear"> <rect x="-31.3" y="-29.4" class="st0" width="345.6" height="345.6"></rect> </g> <g id="optional_white_backing"> <circle class="st1" cx="142.1" cy="144" r="140.3"></circle> </g> <g id="logo"> <path d="M244.8,45c-1.5-1.6-3.1-3.1-4.7-4.7c-1.6-1.5-3.3-3-5-4.6c-4.7-4-9.5-7.9-14.9-11.3l-2-1.3l-2-1.2 c-1.4-0.8-2.7-1.7-4.1-2.4c-2.8-1.5-5.6-3.1-8.5-4.4c-2.9-1.4-5.8-2.6-8.8-3.9c-1.5-0.6-3-1.1-4.5-1.7c-0.8-0.3-1.5-0.6-2.3-0.8 l-2.3-0.7c-6.1-2-12.3-3.4-18.5-4.4c-8.9-1.5-18.9-2.2-28.8-1.6c-1,0-2.4,0.1-3.9,0.2c-1.5,0.1-3.1,0.2-4.6,0.4 c-3.1,0.4-6.2,0.7-7.9,0.9c14.7-2.5,29.9-2.6,44.6-0.2c7.4,1.2,14.6,3,21.7,5.3c7.1,2.4,13.9,5.4,20.5,8.9 c-0.7-0.4-1.4-0.8-2.1-1.2c-0.7-0.4-1.6-0.8-2.6-1.3c0.5,0.2,1.1,0.4,1.1,0.4s-0.7-0.3-1.7-0.8c-1-0.5-2.4-1.2-3.8-1.8 c1,0.4,2.5,1.2,4.3,2c0.9,0.4,1.8,0.9,2.7,1.3c0.9,0.5,1.7,1,2.5,1.4c3.2,1.7,5.3,3,2.9,1.6c-5.8-3.4-11.9-6.3-18.2-8.9 c-6.3-2.5-12.8-4.5-19.5-6.1c-1.1-0.3-2.3-0.5-3.4-0.8l-1.7-0.4l-1.7-0.3c1,0.2,2.1,0.4,3.1,0.7c-1.2-0.3-2.4-0.5-3.7-0.7 c-1.2-0.2-2.5-0.4-3.7-0.6c-2.7-0.4-5.4-0.7-8.2-1c0.4,0,0.8,0.1,1.1,0.1c-7.1-0.8-13.3-1.3-21.7-1.1c-1.4,0.1-2.8,0.1-4.3,0.2 c-1.4,0.1-2.9,0.3-4.3,0.4c-0.7,0.1-1.5,0.1-2.2,0.2c-0.7,0.1-1.5,0.2-2.2,0.3c-1.5,0.2-2.9,0.4-4.4,0.6c-1.5,0.3-2.9,0.6-4.4,0.9 l-2.2,0.4l-2.2,0.5c-1.5,0.4-3,0.7-4.4,1.1c-1.5,0.4-2.9,0.9-4.4,1.3c-1.5,0.4-2.9,0.9-4.4,1.5c-1.4,0.5-2.9,1-4.3,1.6 c-2.8,1.2-5.7,2.3-8.5,3.6c-5.6,2.5-10.9,5.6-16.1,8.7c-7.4,4.6-14.3,9.9-20.8,15.8C39.2,43.2,33.3,49.8,27.9,57 c-10.7,14.3-18.8,31-23.4,48.8c-4.6,17.8-5.8,36.9-3.2,55.7c2.6,18.8,9.1,37.3,19.2,54c0.2,0.4,0.5,0.9,0.8,1.4 c0.3,0.5,0.7,1.1,1.1,1.7c0.8,1.2,1.7,2.6,2.6,4c1,1.4,2.1,2.8,3.1,4.2c0.5,0.7,1.1,1.4,1.6,2.1c0.6,0.6,1.1,1.3,1.6,1.9 c-15.1-19.4-24.8-42.2-28.6-65.5c-0.3-1.4-0.5-2.9-0.6-4.4l-0.5-4.4l-0.3-4.4l-0.2-2.2L1,147.8l-0.1-4.4c0-1.5,0-2.9,0-4.4 c0-2.9,0.2-5.8,0.4-8.7c0.9-11.5,3.3-22.8,6.8-33.7c3.6-10.8,8.5-21.1,14.5-30.7c6-9.5,13.2-18.3,21.2-26.1 c8-7.8,17-14.6,26.5-20.2c1.2-0.7,2.4-1.4,3.6-2.1l3.7-1.9l1.8-1l1.9-0.9l3.8-1.8c1.3-0.6,2.6-1.1,3.9-1.6c1.3-0.5,2.6-1.1,3.9-1.5 c2.6-0.9,5.2-1.9,7.9-2.6c16.9-5.1,35-6.9,52.5-5.5C130.1-1,106.2,3,84.7,12.8C60,24,38.4,42.6,23.6,66.1 C8.9,89.6,1.2,117.7,2,146.1c0,3.6,0.4,7.1,0.7,10.6l0.7,5.3l0.2,1.3l0.2,1.3l0.5,2.6c1.3,7,3,14,5.4,20.8 c4.6,13.6,11.3,26.7,19.9,38.5c2.2,3,4.5,6,6.9,8.9c-0.3-0.2-0.7-0.5-1.1-0.8c-1.1-0.9-2.4-2.3-3.9-4c1.2,1.5,2.4,3.1,3.7,4.6 c1.3,1.5,2.6,3,3.9,4.5c12.3,13.5,27.7,25.1,45.2,33.1c-7.5-3.8-14.5-8.2-21.2-13.1c0.6,0.4,1.2,0.8,1.7,1.2 c6.9,4.6,14.3,8.7,21.9,12c7.7,3.3,15.6,5.8,23.6,7.5c1.4,0.3,2.8,0.6,4.4,1c1.6,0.3,3.2,0.6,4.9,1c1.7,0.4,3.5,0.7,5.3,1 c1.8,0.3,3.6,0.7,5.5,0.9c7.4,1.2,14.9,1.5,20.5,1.2c12.6-0.7,25.4-2.8,37.7-6.6c6.2-1.8,12.2-4.2,18.1-6.8 c2.9-1.4,5.9-2.7,8.7-4.3c1.4-0.8,2.9-1.5,4.2-2.3c1.4-0.8,2.8-1.7,4.1-2.5c0.7-0.4,1.4-0.8,2.1-1.3l2-1.3c1.3-0.9,2.6-1.8,4-2.7 c1.3-1,2.5-1.9,3.8-2.9c1.3-1,2.5-1.9,3.7-3c1.2-1,2.4-2.1,3.6-3.1c1.2-1,2.3-2.1,3.5-3.2c1.1-1.1,2.3-2.2,3.4-3.3 c1.1-1.1,2.1-2.3,3.2-3.4c8.4-9.2,15.2-19.4,20.2-30c3.1-5.1,5.7-10.5,8.2-15.9c-3.6,6.1-7.2,12.9-10.5,18.5 c-0.4,0.6-0.9,1.2-1.3,1.5c-0.9,1.8-1.4,2.6-1.8,3.5c-5.3,6.5-11.5,14.1-19.2,21.9c-3.8,3.9-8,7.8-12.5,11.6 c-1.1,1-2.3,1.9-3.5,2.8c-1.2,0.9-2.3,1.9-3.5,2.8c-2.5,1.8-4.9,3.7-7.5,5.3c-1.3,0.9-2.6,1.7-3.9,2.6c-1.3,0.8-2.7,1.6-4,2.4 l-2,1.2c-0.7,0.4-1.4,0.7-2.1,1.1c-1.4,0.7-2.8,1.5-4.2,2.2c-5.7,2.7-11.5,5.3-17.5,7.3c-11.9,4.1-24.3,6.3-35.8,6.9 c-0.8,0-1.6,0.1-2.5,0.1l-2.5,0c-1.6,0-3.3,0-4.9,0c-3.3-0.2-6.6-0.3-9.8-0.6c-6.5-0.6-13-1.7-19.3-3.2c0.6,0.1,1.2,0.1,1.8,0.2 c0.6,0,1.3,0.1,2,0.1c1.4,0.1,2.9,0.2,4.4,0.3c1.5,0.1,3.1,0.2,4.6,0.2c1.5,0.1,3.1,0.2,4.5,0.3c13.9,1.3,28.6,0.8,42.8-2.1 c7.1-1.4,13.9-3.4,20.5-5.8c6.5-2.4,12.6-5.4,18.2-8.7c-5.9,2.7-11.9,4.9-18,6.7c-3,1-6.2,1.7-9.4,2.6c-1.6,0.4-3.2,0.8-4.8,1.2 c-0.8,0.2-1.6,0.4-2.5,0.6c-0.8,0.2-1.7,0.3-2.5,0.5c-1.7,0.3-3.4,0.8-5.2,1.3c-1.8,0.4-3.7,0.9-5.6,1.4c-3.8,0.8-7.6,1.5-10.8,1.5 c-8.4,0.3-16.3,0.1-24-0.6c-7.7-0.8-15.1-2.1-22.3-3.9c-7.2-1.8-14.2-4.3-21-7.4c-3.4-1.5-6.7-3.3-10.1-5.2c-1.6-1-3.3-2-4.9-3 c-1.6-1-3.2-2.2-4.8-3.3c-0.7-0.5-1.2-0.9-1.7-1.4c-0.5-0.5-1-1-1.4-1.4c-0.7-0.7-1.4-1.4-2.2-2c14.1,10.6,29.7,17.8,46,22 c16.7,4.3,34.2,5.7,52.5,4c1.5-0.1,2.9-0.2,4.2-0.3c1.3-0.1,2.6-0.3,3.9-0.4c1.3-0.2,2.5-0.2,3.7-0.4c1.2-0.2,2.5-0.4,3.7-0.6 c5.1-1.4,9.7-2.9,13.7-4.2c10.8-3.3,18.7-7.4,25-11.5c0.8-0.5,1.6-1,2.3-1.5c0.7-0.5,1.4-1.1,2.1-1.6c1.4-1,2.8-2,4-3.1 c2.5-2.1,4.9-4.1,7.1-6.3c1.1-1.1,2.2-2.1,3.3-3.2c1.1-1.1,2.1-2.2,3.2-3.4c0.6-0.6,1.1-1.1,1.7-1.7c0.5-0.6,1.1-1.2,1.7-1.8 c1.1-1.2,2.3-2.5,3.5-3.8c4.8-5.3,10.2-11.4,16.6-19.8c-1.5,1.9-2.9,4.1-4.5,6.3c-0.8,1.1-1.6,2.2-2.4,3.4 c-0.9,1.1-1.7,2.3-2.6,3.4c-1.7,2.4-3.7,4.6-5.6,7c-0.9,1.2-2,2.3-2.9,3.4c-1,1.1-2,2.3-3,3.4c-4.1,4.3-8.2,8.5-12.1,11.9 c-1.9,1.7-3.8,3.3-5.5,4.7c-1.7,1.4-3.3,2.7-4.7,3.7c5.6-3.4,12.4-8.1,19.2-14c6.8-6,13.7-13.2,19.7-21.2c6-8,11.3-16.7,15.4-25.3 c4.1-8.5,7.1-16.9,9.4-24c2.7-8.7,3.8-15.3,4.5-20.4c0.2-2.6,0.5-4.8,0.6-6.9c0-2.1,0-3.9,0-5.8c-0.2-3.7-0.4-7.2-1-11.7 c-0.5-4.5-1.4-10.1-3.1-17.8c-0.6-3.3-3.4-11.9-7.7-20.6c-2.1-4.4-4.7-8.8-7.1-12.7c-0.6-1-1.3-1.9-1.9-2.9 c-0.6-0.9-1.2-1.8-1.8-2.7c-0.6-0.9-1.2-1.7-1.7-2.5c-0.5-0.8-1.1-1.5-1.6-2.2c11.4,19.6,17.1,36,18.5,47.9 c1.9,9.4,2.8,19.8,2.5,30.1c-0.3,10.3-2.1,20.4-4.5,29.4c-2.4,9-5.6,16.8-8.5,22.7c-0.7,1.5-1.5,2.8-2.1,4.1 c-0.7,1.2-1.2,2.4-1.9,3.4c-1.2,2-2.1,3.4-2.7,4.3c-0.6,0.9-0.9,1.2-0.7,0.8c0.2-0.3,0.7-1.4,1.6-3.1c0.5-0.9,1-2,1.7-3.2 c0.7-1.3,1.3-2.8,2.2-4.5c0.9-1.7,1.7-3.7,2.6-5.9c1-2.2,1.8-4.7,2.9-7.4c1.9-5.5,3.9-12.1,5.3-20c1.4-7.9,2.5-17,2.2-27.3 c-0.1-2.6-0.1-5.2-0.4-7.9c-0.1-1.4-0.2-2.7-0.4-4.1c-0.2-1.4-0.4-2.8-0.6-4.2c-0.1-0.7-0.2-1.4-0.3-2.1c-0.1-0.7-0.3-1.4-0.4-2.2 c-0.3-1.4-0.5-2.9-0.8-4.4c-0.7-2.9-1.3-6-2.3-9c-0.8-3.1-1.9-6.1-3-9.2c-0.6-1.5-1.2-3.1-1.9-4.7c-0.6-1.6-1.4-3.1-2.1-4.7 c-2.9-6.3-6.5-12.6-10.8-18.8c0.6,1.3,3.3,5.7,6.2,11.9c3,6.2,6.1,14.3,8.3,22.6c2.2,8.3,3.4,16.8,3.8,23.2 c0.1,0.8,0.1,1.6,0.2,2.3c0,0.7,0,1.5,0,2.1c0,1.3,0,2.5,0,3.5c-0.1,2-0.2,3.3-0.3,3.6c-0.2,0.2-0.3-1.2-0.5-3.8 c-0.1-1.3-0.2-2.9-0.4-4.8c-0.1-1.9-0.4-4-0.7-6.3c-0.1-1.2-0.4-2.4-0.5-3.6c-0.2-1.2-0.4-2.5-0.6-3.8c-0.6-2.6-1-5.4-1.8-8.2 c-0.4-1.4-0.7-2.9-1.1-4.3c-0.4-1.4-0.9-2.9-1.3-4.4c-0.5-1.5-1-2.9-1.5-4.4c-0.3-0.7-0.5-1.5-0.8-2.2l-0.9-2.2 C258,81,251.4,70.5,245.9,63.3c-2.8-3.6-5.2-6.4-7-8.2c-1.7-1.8-2.7-2.7-2.6-2.4c0.2,0.6,0.9,1.7,1.8,3.2c0.5,0.8,1.1,1.6,1.7,2.6 c0.6,1,1.3,2,2,3.2c0.4,0.6,0.7,1.1,1.1,1.7c0.4,0.6,0.7,1.3,1.1,1.9c0.7,1.3,1.6,2.6,2.4,4c0.8,1.4,1.5,2.9,2.3,4.4 c0.8,1.5,1.5,3.1,2.2,4.6c2.9,6.2,5.4,12.7,7.1,18.3c0.4,1.4,0.8,2.7,1.1,3.9c0.2,0.6,0.4,1.2,0.5,1.8c0.1,0.6,0.3,1.1,0.4,1.6 c0.5,2.1,1,3.7,1.2,4.8c1.2,3,1.6,5.7,3,6.5c0.2,1.4,0.5,2.8,0.8,4.2c0.2,1.4,0.4,2.7,0.6,4c0.1,0.7,0.2,1.3,0.3,2 c0.1,0.7,0.2,1.3,0.2,2c0.2,1.3,0.3,2.6,0.5,3.9c0.1,1.3,0.2,2.6,0.3,4c0.1,0.7,0.1,1.3,0.2,2c0,0.7,0.1,1.4,0.1,2.1 c0,1.4,0.1,2.8,0.1,4.2c0,1.4,0,2.9-0.1,4.5c-0.2,15.5-2.8,31.3-9,46.2c-6.1,14.9-16,28.7-29.5,39.3c-0.6,0.4-1.3,1.1-2.1,2 c-0.8,0.8-1.7,1.9-2.6,2.8c-1.9,1.9-3.8,4-5.1,5.1l-3.8,2.7c-1.3,0.9-2.6,1.7-4,2.5c-0.7,0.4-1.3,0.8-2,1.2l-2.1,1.1 c-1.4,0.7-2.7,1.5-4.2,2.2c-5.6,2.8-11.5,5-17.5,7c-6,1.9-12.1,3.3-18.3,4.5c-6.2,1.1-12.5,1.9-18.9,2.4 c-7.8,0.5-15.9-0.2-23.7-1.5c-7.9-1.4-15.6-3.5-23-5.8c-17.9-5.2-34.4-15-48.1-28c-13.7-13-24.6-29.1-31.5-47.1 c-0.4,0.8-1.7-1.7-3.1-5c-0.6-1.7-1.2-3.5-1.7-5.2c-0.5-1.7-0.9-3.3-1.1-4.3c-5.5-19.3-6-39.6-2.5-58.4 C17.1,92.9,24.7,75.5,34.9,61c4.9-7.3,10.5-13.9,16.6-20c6.2-6.1,13-11.6,20.6-16.6c15.4-10,31.7-16.2,48.2-19.3 c16.6-3.1,33.6-3.3,51-0.1c1.4,0.3,2.8,0.5,4.2,0.8l4.1,1c2.8,0.6,5.5,1.5,8.2,2.3c5.4,1.8,10.8,3.8,16,6.3 c10.5,4.8,20.5,11.3,30.1,19.3C240.9,40.4,248.5,49.1,244.8,45z M88.1,265.2L90,266c0.6,0.3,1.3,0.5,1.9,0.7l3.8,1.4 c1.2,0.5,2.5,0.8,3.8,1.3c1.3,0.4,2.5,0.8,3.8,1.2c5.1,1.4,10.3,2.6,15.5,3.5c10.4,1.7,20.8,2.2,31.1,1.5c10.3-0.7,20.3-2.6,30-5.5 c-6.9,2.7-15.4,4.9-25,6.1c-9.6,1.1-20.3,1.1-31.3-0.4c-11-1.5-22.3-4.6-33.1-9.1c-5.7-2.4-11.2-5.2-16.5-8.3 c-0.1-0.1-0.3-0.2-0.5-0.3c-0.4-0.3-0.9-0.5-1.5-0.9c-0.5-0.3-1.1-0.7-1.8-1.1c-0.8-0.5-1.7-1.1-2.7-1.8c-0.1-0.1-0.2-0.1-0.3-0.2 c-0.5-0.3-0.9-0.6-1.4-0.9c-0.4-0.3-0.8-0.6-1.2-0.9c-1.5-1.1-3-2.1-4.4-3.2c-12.8-9.6-24.1-21.6-32.9-35.4 c0.3,0.5,0.6,0.9,0.9,1.3c0.7,1,1.3,1.8,1.7,2.3c4,5.7,8.1,10.8,12.3,15.1c1,1.1,2,2.2,3,3.2c1,1,2.1,2,3,3c0.5,0.5,1,1,1.5,1.4 c0.5,0.4,1,0.9,1.5,1.3c1,0.9,2,1.7,2.9,2.5c4.9,4.2,9.4,7.4,13,9.8C73.7,258.3,80.8,262.1,88.1,265.2z M97,9.4 c-1.7,0.7-3.5,1.3-5.2,2c-1.7,0.7-3.4,1.5-5.1,2.2c-3.3,1.6-6.6,3.2-9.7,5L74.6,20l-2.3,1.4L70,22.8l-1.2,0.7l-1.1,0.8 c-1.5,1-3,2.1-4.4,3.1c-1.4,1.1-2.9,2.2-4.3,3.3c-1.2,0.9-2.3,1.8-3.5,2.8c-1.1,0.9-2.3,1.9-3.4,2.8c-1.1,1-2.2,2-3.3,3l-1.6,1.5 l-1.6,1.6c-1,1-2.1,2.1-3.1,3.1c-1,1.1-2,2.2-3,3.2c-2,2.1-3.8,4.4-5.7,6.7c-0.9,1.1-1.8,2.3-2.6,3.5c-0.9,1.2-1.8,2.3-2.6,3.5 c-1.6,2.4-3.3,4.8-4.8,7.4c-3.1,5-5.7,10.2-8.2,15.6c-4.7,10.8-8.3,22.4-10.1,34.7c-0.5,3-0.8,6.2-1.1,9.3 c-0.1,1.6-0.2,3.1-0.3,4.7l-0.1,2.4l0,2.4c-0.1,6.4,0.4,12.9,1.3,19.4c-1.3-10.1-1.3-19.5-0.4-28.2c0.9-8.7,2.6-16.7,4.9-24.4 C6,120.9,4.6,137,6,153.1c0.1,1,0.3,2,0.4,3.1c0.2,1,0.3,2,0.5,3c0.3,2,0.6,3.9,1,5.7c0.3,1.5,0.6,3,0.8,4.4 c0.4,1.5,0.7,2.9,1.1,4.4c1.8,8.4,4.1,16.4,7.4,24.3c17.3,40.3,53.2,71.1,97.4,82.8c-17.2-3.9-33.5-11-47.9-20.7 c-7.2-4.8-13.9-10.3-20-16.2c-6.1-6-11.6-12.5-16.6-19.4c-4.9-6.9-9.3-14.2-12.9-21.7c-3.6-7.6-6.5-15.4-8.7-23.5 c-4.4-16-5.9-32.7-4.6-48.9C5.3,114.1,9.4,98.1,16,83.4c6.6-14.7,15.8-28.1,26.9-39.6c1.4-1.4,2.8-2.9,4.2-4.2l4.4-4l4.6-3.8 c0.8-0.7,1.6-1.3,2.4-1.8l2.4-1.8c6.4-4.7,13.2-8.9,20.4-12.5C95.5,8.4,111,3.9,126.8,2C116.8,3.3,106.8,5.7,97,9.4z M75.4,259.3 c-0.4-0.2-0.9-0.5-1.6-0.9c-2.2-1.3-4.3-2.6-6.4-4c-0.1-0.1-0.2-0.1-0.3-0.2c-0.9-0.6-1.7-1.2-2.6-1.8c-1.4-1-2.8-2-4.4-3.2 c2.2,1.7,4.5,3.3,6.9,4.8c1.9,1.3,3.6,2.4,5,3.3C75.9,259.5,77.3,260.4,75.4,259.3z M141.4,288c-20.6-0.9-40.1-6.4-57.3-15.1 c17.5,8.1,36.9,12.6,56.5,13.2c7,0.3,14.8,0.2,22.5-0.5c7.7-0.7,15.2-1.8,21.6-2.9c-6.9,1.8-14,3.1-21.2,4.1 C156.2,287.6,148.8,288,141.4,288z"></path> <path class="st2" d="M59.6,76.5l-7.3,1.3l-0.5,40.9l6.7-1.2l-0.1-8.1l6.3-1.1l2.7,7.6l6.9-1.2L59.6,76.5z M58.1,103.1L58,89.7 l4.4,12.7L58.1,103.1z M76.1,114.4l-7-39.5l6.8-1.2l7.4,13.6L85.7,72l6.8-1.2l7,39.5l-6.6,1.2l-4.2-23.9l-2.4,15.8l-0.1,0 l-7.7-14.1l4.2,23.9L76.1,114.4z M103.5,109.5l-7-39.5l15.1-2.7l1.2,6.5l-8.2,1.5l1.7,9.8l7.3-1.3l1.2,6.5l-7.3,1.3l1.8,10l8.4-1.5 l1.2,6.5L103.5,109.5z M129,105l-2.4-13.8l1.2-0.2c0,0,0.1,0,0.1,0l6.9,13l7.3-1.3L134,87.7c2.2-2.4,3.7-6.1,2.8-11.2l-0.1-0.5 c-1.6-8.9-7.3-11.7-14.4-10.4l-7.1,1.3l7,39.5L129,105z M123.4,72c3-0.5,5.6,0.4,6.5,5.3l0.1,0.5c0.8,4.6-1.1,6.8-4.1,7.3l-0.3,0.1 L123.2,72L123.4,72z M144.7,102.3l-7-39.5l6.9-1.2l7,39.5L144.7,102.3z M151.7,81.4c2.4,13.8,8.2,18.5,14.5,17.4 c1-0.2,2.1-0.5,3.1-0.8v0l6.7-1.2l-0.1-8.1l6.3-1.1l2.7,7.6l6.9-1.2l-14.5-38.3l-7.3,1.3l-0.4,33.3c-1.1,0.9-2.2,1.4-3.1,1.6 c-3.2,0.6-5.7-1.2-7.6-11.6l-0.3-1.5c-1.7-9.9,0-13,3-13.5c1.3-0.2,2.5,0,4.1,0.6l-1.3-7.1c-1.6-0.4-2.8-0.4-4.7-0.1 c-6.4,1.1-10.6,7.5-8.1,21.4L151.7,81.4z M180,81.6l-4.2,0.7l-0.2-13.4L180,81.6z M193.8,93.6l-7-39.5l6.4-1.1l10.5,18.7l-3.5-20 l6.7-1.2l7,39.5l-6.1,1.1l-11-19.6l3.7,20.9L193.8,93.6z M73.6,183.2L73,231l7.8-1.4l-0.2-9.4l7.3-1.3l3.1,8.9l8-1.4l-16.9-44.6 L73.6,183.2z M80.5,212.7l-0.2-15.6l5.1,14.8L80.5,212.7z M127.9,173.8l1.2,47.4l-8.4,1.5L112,196l1,28l-8.4,1.5l-15.1-45l8.2-1.5 l8.3,27.6l-1-28.9l7.4-1.3l8.9,27.5l-1.6-28.8L127.9,173.8z M135.1,172.4l-0.6,47.7l7.8-1.4l-0.2-9.4l7.3-1.3l3.1,8.9l8-1.4 l-16.9-44.6L135.1,172.4z M142,201.9l-0.2-15.6l5.1,14.8L142,201.9z M180,180.3l-0.1-0.6c-1.8-10.3-8.6-13.6-16.8-12.2l-8.3,1.5 l8.1,46.1l8-1.4l-2.8-16.1l1.4-0.2c0,0,0.1,0,0.1,0l8,15.1l8.6-1.5l-9.5-17.6C179.4,190.6,181.1,186.3,180,180.3z M167.3,190.3 l-0.4,0.1l-2.7-15.3l0.2,0c3.5-0.6,6.5,0.4,7.5,6.2l0.1,0.5C173,187.2,170.8,189.7,167.3,190.3z M208.6,182.5 c-2.6-14.8-9.8-21.2-20-19.4l-7.5,1.3l8.1,46.1l7.5-1.3c10.3-1.8,14.8-10.3,12.2-25.1L208.6,182.5z M196.2,201.6l-0.3,0.1 l-5.5-31.3l0.3-0.1c3.8-0.7,7.7,2.1,9.7,13.6l0.3,1.6C202.7,197,200,201,196.2,201.6z M223.6,204.7c-3.2,0.6-6,0.2-8.5-0.5 l-1.5-8.4c3.1,1.1,5.5,1.7,7.7,1.3c2.3-0.4,4.1-1.9,3.6-4.7l0-0.1c-0.4-2.1-1.3-3.6-5.9-7.2c-6.6-5.2-9.3-7.8-10.3-13.4l0-0.1 c-1.3-7.4,2.7-12.9,9.1-14c3.2-0.6,5.2-0.4,7.4,0.2l1.5,8.4c-2.8-1-4.4-1.4-6.5-1c-2.2,0.4-3.9,2.2-3.4,4.7l0,0.1 c0.4,2.2,1.2,2.8,5.8,6.6c7.6,6.2,9.5,8.8,10.4,14l0,0.1C234.1,197.9,229.9,203.6,223.6,204.7z"></path> <g> <polygon points="98.6,161.5 91.5,120.9 83,122.4 91.6,171 109,167.9 107.5,159.9 "></polygon> <polygon points="82.3,143.4 74.2,144.9 72.1,132.7 81.3,131 79.9,123 62.2,126.1 70.8,174.7 79.2,173.2 75.6,152.9 83.7,151.5 "></polygon> <rect x="24.5" y="132.4" transform="matrix(0.9848 -0.1737 0.1737 0.9848 -26.8294 7.3889)" width="8.6" height="49.3"></rect> <polygon points="49.6,128.3 54,152.9 41.1,129.8 33.2,131.2 41.8,179.8 50,178.3 45.5,152.6 59,176.7 66.5,175.4 57.9,126.9 "></polygon> <path d="M126.4,114.8l-8.4,1.5l6.2,35.2c0.8,4.4-0.4,6.4-2.6,6.8c-2.2,0.4-4-1.1-4.8-5.5l-6.2-35.2l-8.4,1.5l6.1,34.4 c1.8,10.2,7.7,13.9,14.7,12.6c6.9-1.2,11.3-6.7,9.5-16.9L126.4,114.8z"></path> <path d="M242.2,127l8.5,16l9-1.6l-10-18.5c2.8-3,4.5-7.5,3.4-13.8l-0.1-0.6c-1.9-10.9-9-14.4-17.7-12.8l-8.7,1.5l8.6,48.5l8.5-1.5 l-3-16.9l1.5-0.3C242,127,242.1,127,242.2,127z M239.7,119.6l-0.4,0.1l-2.8-16.1l0.2,0c3.7-0.6,6.9,0.4,7.9,6.5l0.1,0.6 C245.7,116.3,243.3,118.9,239.7,119.6z"></path> <path d="M203.3,143.1c-3.9,0.7-7.1-1.5-9.3-14.3l-0.3-1.8c-2.1-12.1,0-15.9,3.7-16.6c1.6-0.3,3.1,0,5,0.8l-1.5-8.7 c-1.9-0.5-3.4-0.5-5.7-0.1c-7.9,1.4-13,9.2-10,26.3l0.3,1.7c3,16.9,10.1,22.7,17.9,21.4c2.4-0.4,4.2-1.1,6-2.6l-1.5-8.3 C206.2,142.1,204.6,142.9,203.3,143.1z"></path> <polygon points="146.2,153.1 144,140.7 152.9,139.1 151.5,131.1 142.6,132.7 140.4,120.6 150.6,118.8 149.2,110.8 130.6,114.1 139.1,162.6 157.9,159.3 156.5,151.2 "></polygon> <polygon points="220,140.1 217.8,127.7 226.7,126.1 225.3,118.1 216.4,119.7 214.2,107.6 224.4,105.8 222.9,97.8 204.4,101 212.9,149.6 231.7,146.3 230.3,138.2 "></polygon> <polygon points="169.2,107.2 173.5,131.8 160.7,108.7 152.8,110.1 161.3,158.7 169.6,157.2 165,131.5 178.5,155.7 186,154.3 177.5,105.8 "></polygon> </g> </g> </svg> 