<?xml version="1.0" encoding="utf-8"?>
<!-- Generator: Adobe Illustrator 25.2.0, SVG Export Plug-In . SVG Version: 6.00 Build 0)  -->
<svg version="1.1" xmlns="http://www.w3.org/2000/svg" xmlns:xlink="http://www.w3.org/1999/xlink" x="0px" y="0px"
	 viewBox="0 0 135 135" width="135px" height="135px" enable-background="new 0 0 135 135" xml:space="preserve">
<circle fill="#FFFFFF" cx="67.5" cy="67.5" r="66.9"/>
<path fill="#F8BF5D" d="M67.5,1.2c36.6,0,66.3,29.6,66.3,66.3s-29.7,66.3-66.3,66.3S1.2,104.1,1.2,67.5l0,0
	C1.3,30.9,30.9,1.3,67.5,1.2 M67.5,0C30.2,0,0,30.2,0,67.5S30.2,135,67.5,135S135,104.8,135,67.5S104.8,0,67.5,0z"/>
<path fill="#F8BF5D" d="M71.2,82.5l-5.3,21.2c-0.1,0.3-0.4,0.4-0.7,0.3c-0.2-0.1-0.4-0.3-0.3-0.5l-1.2-21.8l-11.1,6.8
	c-0.3,0.1-0.6,0.1-0.7-0.3c-0.1-0.2-0.1-0.5,0.1-0.6l5.4-8.4l-26,2.7c-0.3,0.1-0.5-0.1-0.6-0.4c-0.1-0.3,0.1-0.6,0.3-0.7l19.8-8.1
	l-18.6-3c-0.3-0.1-0.5-0.3-0.4-0.6c0.1-0.3,0.3-0.5,0.6-0.5l24.3-1.5L44.3,42.9c-0.1-0.3-0.1-0.5,0.1-0.7c0.2-0.2,0.5-0.1,0.7,0.1
	L65,61.5l5.2-33.1c0-0.3,0.3-0.5,0.6-0.5s0.5,0.3,0.5,0.6l1.1,33.2l6.8-7.3c0.2-0.2,0.5-0.3,0.8,0c0.1,0.1,0.2,0.3,0.1,0.5L80,62.7
	l20.2-9.2c0.3-0.1,0.5,0,0.7,0.2c0.1,0.3,0.1,0.5-0.1,0.7L80.3,70.7l14.2,7.8c0.3,0.1,0.3,0.4,0.3,0.7c-0.1,0.3-0.3,0.4-0.6,0.4
	l-14.8-0.4l15.3,22.7c18.9-15,22-42.4,7-61.2s-42.5-22-61.3-7s-22,42.4-6.9,61.2c14,17.7,39.2,21.7,58.1,9.3L71.2,82.5z"/>
<path d="M21.5,88.8l-0.9,0.7c0.9,0.1,1.7,0.7,2.2,1.5c0.4,0.7,0.5,1.7,0.3,2.4c-0.3,1.2-1.3,1.9-2.6,2.6c-1.2,0.7-2.4,1.1-3.6,0.7
	c-1.7-0.6-2.7-2.5-2.2-4.2c0.2-0.6,0.6-1.1,1.1-1.5l0.5,1c-0.3,0.2-0.5,0.5-0.7,0.8c-0.2,0.6-0.1,1.3,0.2,1.8
	c0.3,0.5,0.7,0.9,1.3,1.1c1,0.3,2.1-0.2,2.8-0.6c0.8-0.4,1.9-1.1,2.1-2c0.2-0.5,0.1-1.1-0.2-1.7c-0.3-0.5-0.7-0.9-1.3-1.1
	c-0.8-0.2-1.6-0.1-2.3,0.4l1.1,2.1l-0.9,0.5l-1.5-2.9l4.1-2.2L21.5,88.8z"/>
<path d="M19.3,82.7c0.6,1.9-0.2,3.4-2.2,4l-5.2,1.7l-0.3-1.1l5.2-1.7c1.3-0.4,2-1.3,1.6-2.6c-0.4-1.4-1.5-1.7-2.8-1.3l-5.2,1.7
	L10,82.3l5.2-1.7C17.3,80,18.8,80.8,19.3,82.7z"/>
<path d="M17.7,76.5L9.2,78L9,76.8l8.5-1.4L17.7,76.5z"/>
<path d="M15.9,66.7c0.6,0.6,0.9,1.4,0.9,2.2l0.1,3l-8.6,0.3l-0.1-3c-0.1-0.9,0.3-1.7,0.8-2.2c0.8-1,2.1-1.2,3.4-1.2
	S15,65.8,15.9,66.7z M9.8,67.6c-0.4,0.4-0.6,1-0.5,1.5l0.1,1.9l6.6-0.2L15.9,69c0-0.6-0.3-1.1-0.7-1.5c-0.7-0.7-1.9-0.7-2.7-0.7
	C11.6,66.8,10.5,66.9,9.8,67.6z"/>
<path d="M17,63.1l-8.5-1.2l0.8-5.6l1,0.1L9.6,61l2.6,0.3l0.5-4.1l1,0.1l-0.5,4.1l3,0.4l0.7-4.6l1,0.1L17,63.1z"/>
<path d="M19.3,49.8c0.3,0.8,0.4,1.7,0.1,2.6c-0.2,0.9-0.8,1.6-1.5,2.1c-0.7,0.4-1.5,0.5-2.2,0.3l0.3-1.1c0.5,0.1,1.1,0.1,1.5-0.2
	c0.5-0.3,0.9-0.9,1-1.4c0.2-0.5,0.2-1.1,0-1.7c-0.1-0.3-0.5-0.6-0.9-0.7c-0.7-0.2-1.3,0.1-1.7,1l-0.5,1.1c-0.6,1.2-1.6,1.9-2.8,1.5
	c-0.6-0.2-1.1-0.7-1.4-1.3c-0.3-0.7-0.4-1.6-0.1-2.4c0.2-0.8,0.7-1.5,1.5-1.9c0.6-0.3,1.3-0.4,2-0.3l-0.4,1.1
	c-0.4-0.1-0.8-0.1-1.2,0.1c-1,0.6-1.4,1.9-0.9,2.9c0.2,0.3,0.5,0.5,0.8,0.6c0.7,0.2,1.3-0.2,1.5-0.9c0.2-0.5,0.4-0.9,0.7-1.3
	c0.7-1.3,1.7-2,3-1.6C18.5,48.7,19,49.2,19.3,49.8z"/>
<path d="M15.3,41.7l6.8,3.3l-0.5,1l-6.9-3.3L13.7,45l-0.9-0.5l2.7-5.6l0.9,0.5L15.3,41.7z"/>
<path d="M27.1,36.9L25,36.3l-2.1,3.1l1.3,1.7l-0.6,0.9l-5.4-7.3l0.7-1.1l8.8,2.3L27.1,36.9z M19.4,34.8l2.8,3.8l1.7-2.5L19.4,34.8z"
	/>
<path d="M32.6,30.7l-3.7-1.3l-1.7,1.7l2.6,2.5l-0.7,0.8l-6.2-6l2.3-2.4c0.5-0.6,1.3-1,2.1-1.1c0.7,0,1.3,0.3,1.7,0.7
	c0.5,0.4,0.7,1,0.7,1.7c0,0.4-0.1,0.8-0.3,1.2l3.9,1.4L32.6,30.7z M25.9,26.7l-1.6,1.7l2.2,2.1l1.6-1.7c0.7-0.7,0.9-1.5,0.1-2.3
	C27.5,25.7,26.7,25.9,25.9,26.7z"/>
<path d="M43.8,22.6l-0.7-0.8c-0.1,0.9-0.6,1.8-1.4,2.3c-0.7,0.5-1.6,0.6-2.4,0.4c-1.2-0.3-2-1.2-2.8-2.5c-0.7-1.2-1.2-2.4-0.9-3.6
	c0.2-0.9,0.8-1.5,1.5-2c0.8-0.5,1.7-0.7,2.6-0.4c0.6,0.1,1.1,0.5,1.5,1.1l-1,0.6c-0.2-0.3-0.5-0.5-0.8-0.6c-0.6-0.2-1.3-0.1-1.8,0.3
	s-0.9,0.8-1,1.4c-0.2,1,0.3,2,0.8,2.8c0.5,0.8,1.1,1.8,2.1,2.1c0.5,0.1,1.1,0.1,1.7-0.3c0.5-0.3,0.9-0.8,1.1-1.3
	c0.1-0.8,0-1.6-0.5-2.2l-2,1.2L39.4,20l2.8-1.7l2.4,4L43.8,22.6z"/>
<path d="M51.6,18.5c-0.8,1.6-2.7,2.3-4.4,1.7c-1.2-0.5-1.8-1.7-2.2-2.9c-0.5-1.3-0.8-2.5-0.2-3.7c0.8-1.7,2.7-2.4,4.4-1.7
	c1.2,0.5,1.8,1.7,2.2,2.9S52.2,17.4,51.6,18.5z M48.7,12.9c-1.1-0.5-2.4,0-2.9,1.1c-0.4,0.9,0,2.1,0.3,2.9c0.3,0.9,0.8,1.9,1.7,2.4
	c0.5,0.3,1.1,0.3,1.7,0.1c0.5-0.2,1-0.6,1.3-1.2c0.4-0.9,0-2.1-0.3-2.8C50.2,14.6,49.6,13.3,48.7,12.9z"/>
<path d="M55.5,18.3l-1.7-8.5l1.1-0.2l1.5,7.5l4-0.8l0.2,1L55.5,18.3z"/>
<path d="M68,15.9c-0.6,0.6-1.4,0.9-2.2,0.9l-3,0.1l-0.3-8.6l3-0.1c0.9-0.1,1.7,0.3,2.3,0.8c1,0.9,1.2,2.1,1.3,3.4
	C69,13.7,69,15,68,15.9z M67.1,9.9c-0.4-0.4-1-0.6-1.6-0.6l-1.9,0.1l0.3,6.6l1.9-0.1c0.6,0,1.1-0.3,1.5-0.7c0.7-0.7,0.7-1.9,0.7-2.7
	C68,11.6,67.8,10.5,67.1,9.9z"/>
<path d="M79.6,10.5L78.1,18L77,17.8l1.5-7.5L76,9.8l0.2-1l6.1,1.3l-0.2,1L79.6,10.5z"/>
<path d="M87.3,20.8L87,16.9l-2.2-0.9l-1.3,3.4l-1-0.4l3-8.1l3.2,1.2c0.8,0.2,1.5,0.7,1.8,1.5c0.3,0.6,0.3,1.3,0,1.9
	c-0.2,0.6-0.7,1.1-1.2,1.4c-0.4,0.1-0.8,0.3-1.2,0.2l0.3,4.2L87.3,20.8z M88.3,13.1l-2.2-0.8L85,15.2l2.2,0.8
	c0.9,0.3,1.8,0.2,2.2-0.8S89.3,13.4,88.3,13.1z"/>
<path d="M95.4,25.2l0.4-2.1l-3.2-1.9L91,22.6L90.1,22l7-5.9l1.1,0.7l-1.7,9L95.4,25.2z M97,17.4l-3.6,3l2.6,1.6L97,17.4z"/>
<path d="M102,30.4l1.3-8l-4.5,5.2L98.1,27l5.6-6.6l0.9,0.8l-1.3,8l4.6-5.3l0.8,0.7l-5.6,6.6L102,30.4z"/>
<path d="M108.9,37.1c-0.9-0.1-1.7-0.6-2.2-1.3c-0.6-0.7-0.9-1.5-0.9-2.4c0.1-0.8,0.4-1.5,1-2.1l0.7,0.9c-0.4,0.3-0.6,0.8-0.7,1.3
	c0,0.6,0.3,1.2,0.7,1.7c0.3,0.5,0.9,0.8,1.4,0.9c0.4,0.1,0.8-0.1,1.1-0.3c0.5-0.4,0.7-1.1,0.1-2l-0.7-1.2c-0.7-1.1-0.7-2.4,0.3-3.2
	c0.5-0.4,1.2-0.6,1.8-0.5c1.7,0.3,2.9,1.8,2.8,3.4c-0.1,0.7-0.4,1.3-0.9,1.8l-0.7-0.9c0.3-0.3,0.5-0.6,0.6-1
	c0.1-1.2-0.8-2.2-1.9-2.4c-0.3,0-0.7,0.1-0.9,0.3c-0.5,0.5-0.5,1.3-0.1,1.8c0.3,0.4,0.5,0.9,0.7,1.3c0.7,1.3,0.7,2.5-0.4,3.4
	C110.2,37.1,109.6,37.2,108.9,37.1z"/>
<path d="M116.4,42.9c-0.7-0.3-1.3-0.8-1.7-1.5l-1.1-1.9l-2.9,1.7l-0.5-0.9l7.5-4.2l1.6,2.8c0.5,0.7,0.6,1.5,0.4,2.3
	c-0.2,0.7-0.7,1.2-1.3,1.5C117.9,42.9,117.1,43.1,116.4,42.9z M118.5,39.2l-1.1-1.8l-2.8,1.7l1.1,1.9c0.6,1,1.3,1.3,2.3,0.7
	C118.9,41,119,40.2,118.5,39.2z"/>
<path d="M115.7,52l1.7-1.4l-1.3-3.5l-2.2,0.1l-0.4-1.1l9.1-0.2l0.5,1.2l-7,5.9L115.7,52z M121.9,46.9l-4.7,0.1l1.1,2.8L121.9,46.9z"
	/>
<path d="M117.7,60.3l3.2-2.2l-0.5-2.3l-3.5,0.7l-0.2-1.1l8.5-1.6l0.6,3.3c0.2,0.8,0.1,1.6-0.3,2.3c-0.4,0.5-0.9,0.9-1.6,1
	c-0.6,0.1-1.3,0-1.8-0.3c-0.3-0.3-0.6-0.5-0.8-0.9l-3.4,2.4L117.7,60.3z M124.8,57.2l-0.4-2.2l-3,0.5l0.4,2.2c0.2,1,0.7,1.7,1.8,1.5
	C124.7,59,125,58.2,124.8,57.2z"/>
<path d="M118.1,64l8.6-0.1l0.1,5.8h-1l-0.1-4.6l-2.6,0.1l0.1,4.1h-1l-0.1-4.1l-3,0.1l0.1,4.7h-1L118.1,64z"/>
<path d="M117.2,77.5l7.5-3.1l-6.8-1.1l0.1-1.1l8.5,1.4l-0.2,1.2l-7.5,3l6.9,1.1l-0.1,1.1l-8.5-1.3L117.2,77.5z"/>
<path d="M115.1,86.9c-0.7-1.7-0.1-3.6,1.5-4.4c1.2-0.6,2.4-0.3,3.7,0.1c1.3,0.5,2.4,1,3,2.2c0.3,0.8,0.4,1.7,0.1,2.5
	c-0.3,0.8-0.9,1.5-1.6,1.9c-0.7,0.3-1.5,0.4-2.1,0.1l0.4-1.1c0.5,0.1,0.9,0.1,1.3-0.1c0.5-0.3,0.9-0.7,1.1-1.3
	c0.2-0.5,0.1-1.2-0.1-1.7c-0.5-0.9-1.5-1.3-2.4-1.6c-0.9-0.3-2-0.7-2.9-0.2c-0.5,0.3-0.9,0.7-1.1,1.3c-0.2,0.5-0.2,1.2,0.1,1.7
	c0.2,0.4,0.6,0.7,1,0.9l-0.4,1.1C116.1,88.1,115.5,87.6,115.1,86.9z"/>
<path d="M114.9,93.7l-3-1.7l0.5-0.9l3,1.7l5.9-0.1l-0.6,1.1l-4.7,0.1l2.5,3.9l-0.5,1L114.9,93.7z"/>
<path d="M52.3,124.9l0.3-1.2l4-3.2c0.3-0.3,0.5-0.6,0.7-1c0.1-0.5-0.1-1.1-0.7-1.3c-0.1,0-0.1,0-0.1,0c-0.6-0.1-1.2,0.3-1.3,0.9
	c0,0.1,0,0.1,0,0.1l-1.5-0.3c0.2-1.3,1.5-2.2,2.8-2c0.1,0,0.3,0.1,0.3,0.1c1.3,0.1,2.2,1.4,2.1,2.6c0,0.1,0,0.1-0.1,0.2
	c-0.2,0.7-0.7,1.4-1.3,1.9l-2.8,2.2l3.3,0.7l-0.3,1.3L52.3,124.9z"/>
<path d="M65.8,126.2c-0.5,0.5-1.3,0.7-2,0.7c-0.7,0-1.5-0.3-1.9-0.9c-0.8-0.9-0.9-2.3-0.8-3.7s0.3-2.8,1.3-3.6
	c1.2-0.9,2.8-0.9,3.9,0.3c0.8,0.9,0.9,2.3,0.8,3.7C67,124.1,66.8,125.4,65.8,126.2z M64.3,119.4c-1.6-0.1-1.5,1.8-1.6,2.9
	c-0.1,1.1-0.3,3,1.3,3c1.6,0.1,1.5-1.8,1.6-2.9S65.8,119.6,64.3,119.4z"/>
<path d="M70.1,126.8l-0.1-1.2l2.9-4.2c0.3-0.3,0.3-0.7,0.3-1.1c0-0.5-0.5-1-1-1c-0.1,0-0.1,0-0.1,0c-0.6,0.1-1.1,0.6-1.1,1.2
	c0,0.1,0,0.1,0,0.1l-1.5,0.1c-0.2-1.3,0.7-2.6,2.1-2.8c0.1,0,0.3,0,0.4,0c1.3-0.2,2.5,0.7,2.8,1.9c0,0.1,0,0.1,0,0.2
	c0,0.8-0.3,1.5-0.7,2.1l-2.1,3l3.4-0.3l0.1,1.4L70.1,126.8z"/>
<path d="M80.8,125.3l-1.5-6.5l-1.5,1.7l-0.4-1.6l1.7-1.9l1.3-0.3l1.9,8.2L80.8,125.3z"/>
</svg>
