<?xml version="1.0" encoding="UTF-8"?>
<!DOCTYPE svg PUBLIC "-//W3C//DTD SVG 1.1//EN" "http://www.w3.org/Graphics/SVG/1.1/DTD/svg11.dtd">
<svg xmlns="http://www.w3.org/2000/svg" version="1.1" width="500px" height="500px" style="shape-rendering:geometricPrecision; text-rendering:geometricPrecision; image-rendering:optimizeQuality; fill-rule:evenodd; clip-rule:evenodd" xmlns:xlink="http://www.w3.org/1999/xlink">
<g><path style="opacity:1" fill="#1b1919" d="M 486.5,180.5 C 486.41,183.152 487.076,185.485 488.5,187.5C 499.406,230.571 499.072,273.571 487.5,316.5C 485.926,318.102 485.259,320.102 485.5,322.5C 485.5,322.833 485.5,323.167 485.5,323.5C 482.514,331.398 479.514,339.398 476.5,347.5C 471.976,356.202 467.143,364.869 462,373.5C 450.368,387.633 438.201,401.3 425.5,414.5C 416.808,422.195 408.141,429.862 399.5,437.5C 388.507,445.332 377.174,452.665 365.5,459.5C 366.46,455.819 365.46,455.486 362.5,458.5C 356.822,460.504 351.155,462.504 345.5,464.5C 345.5,463.833 345.5,463.167 345.5,462.5C 349.295,460.769 352.962,458.769 356.5,456.5C 366.993,451.421 376.66,445.087 385.5,437.5C 392.464,432.203 398.798,426.203 404.5,419.5C 414.212,410.123 423.212,400.123 431.5,389.5C 433.099,387.396 434.932,385.396 437,383.5C 437.667,384.167 437.667,384.833 437,385.5C 430.158,393.864 423.325,402.197 416.5,410.5C 404.972,423.195 392.639,435.028 379.5,446C 394.196,437.936 407.196,427.436 418.5,414.5C 438.967,394.234 454.967,370.9 466.5,344.5C 471.736,333.474 476.403,322.14 480.5,310.5C 496.468,257.18 491.634,205.846 466,156.5C 460.667,147.833 455.333,139.167 450,130.5C 449.346,129.304 448.846,129.304 448.5,130.5C 477.877,180.083 487.877,233.417 478.5,290.5C 475.395,306.083 471.062,321.416 465.5,336.5C 460.982,345.866 456.148,355.2 451,364.5C 450.346,365.696 449.846,365.696 449.5,364.5C 452.118,359.599 454.452,354.599 456.5,349.5C 460.395,341.837 463.728,333.837 466.5,325.5C 489.178,256.422 481.345,191.089 443,129.5C 442.346,128.304 441.846,128.304 441.5,129.5C 462.451,164.537 472.284,202.537 471,243.5C 469.609,210.939 462.109,179.939 448.5,150.5C 438.819,129.98 426.152,111.48 410.5,95C 409.833,94.3333 409.167,94.3333 408.5,95C 429.589,124.025 444.089,156.192 452,191.5C 452.898,194.069 454.065,196.402 455.5,198.5C 461.143,222.422 462.976,246.755 461,271.5C 460.316,276.822 459.816,282.156 459.5,287.5C 457.072,297.694 454.739,308.027 452.5,318.5C 446.243,337.348 437.576,355.014 426.5,371.5C 418.2,381.467 409.2,390.801 399.5,399.5C 392.614,404.597 386.614,410.597 381.5,417.5C 371.566,424.626 361.233,430.96 350.5,436.5C 330.63,445.303 309.963,451.636 288.5,455.5C 282.18,456.593 275.847,457.593 269.5,458.5C 258.185,459.294 246.852,459.627 235.5,459.5C 230.518,458.768 225.518,458.102 220.5,457.5C 213.956,456.203 207.289,454.87 200.5,453.5C 192.594,451.177 184.594,448.844 176.5,446.5C 161.842,441.841 147.842,435.508 134.5,427.5C 130.664,425.416 126.997,423.083 123.5,420.5C 114.59,414.593 106.256,407.927 98.5,400.5C 90.1321,392.134 82.1321,383.467 74.5,374.5C 69.4871,367.13 64.4871,359.796 59.5,352.5C 53.8745,341.584 48.5412,330.584 43.5,319.5C 38.3886,311.253 34.8886,302.253 33,292.5C 24.2105,256.995 23.3772,221.329 30.5,185.5C 34.602,170.939 39.602,156.606 45.5,142.5C 51.7805,129.279 59.1139,116.612 67.5,104.5C 72.8225,97.8726 78.1558,91.2059 83.5,84.5C 96.2878,70.7073 110.288,58.374 125.5,47.5C 137.453,40.0253 149.786,33.3587 162.5,27.5C 176.544,21.5956 190.877,16.9289 205.5,13.5C 217.063,11.3103 228.73,9.97694 240.5,9.5C 257.201,8.54911 273.868,9.21577 290.5,11.5C 302.209,13.4212 313.876,16.0879 325.5,19.5C 336.957,23.7302 348.291,28.2302 359.5,33C 349.094,26.5861 338.094,21.4194 326.5,17.5C 316.587,14.5217 306.587,11.855 296.5,9.5C 286.539,7.88658 276.539,6.55324 266.5,5.5C 253.189,4.61834 239.856,4.28501 226.5,4.5C 221.859,5.12656 217.193,5.45989 212.5,5.5C 211.127,5.65668 209.793,5.49001 208.5,5C 211.036,4.81382 213.369,4.31382 215.5,3.5C 313.183,-6.40005 391.683,27.5999 451,105.5C 467.124,128.416 478.957,153.416 486.5,180.5 Z"/></g>
<g><path style="opacity:1" fill="#a1a2a3" d="M 266.5,5.5 C 276.539,6.55324 286.539,7.88658 296.5,9.5C 294.898,11.0739 292.898,11.7406 290.5,11.5C 273.868,9.21577 257.201,8.54911 240.5,9.5C 235.684,8.67386 230.684,8.17386 225.5,8C 239.325,7.17691 252.992,6.34357 266.5,5.5 Z"/></g>
<g><path style="opacity:0.967" fill="#2f2d2d" d="M 215.5,3.5 C 213.369,4.31382 211.036,4.81382 208.5,5C 209.793,5.49001 211.127,5.65668 212.5,5.5C 209.325,6.42868 205.991,7.26201 202.5,8C 204.595,8.55563 204.762,9.05563 203,9.5C 201.234,8.76652 199.401,8.43319 197.5,8.5C 187.458,11.0121 177.458,13.8454 167.5,17C 166.167,17.6667 166.167,18.3333 167.5,19C 166.255,19.7914 164.922,20.2914 163.5,20.5C 164.463,19.6365 164.463,18.9698 163.5,18.5C 158.751,20.3052 154.085,22.3052 149.5,24.5C 148.264,23.7542 146.93,23.4208 145.5,23.5C 167.574,12.8112 190.907,6.14454 215.5,3.5 Z"/></g>
<g><path style="opacity:1" fill="#c2c3c4" d="M 226.5,4.5 C 239.856,4.28501 253.189,4.61834 266.5,5.5C 252.992,6.34357 239.325,7.17691 225.5,8C 230.684,8.17386 235.684,8.67386 240.5,9.5C 228.73,9.97694 217.063,11.3103 205.5,13.5C 203.952,13.1788 203.285,12.1788 203.5,10.5C 205.527,10.6621 207.527,10.4955 209.5,10C 208.167,9.66667 206.833,9.33333 205.5,9C 207.713,8.3744 209.88,8.54106 212,9.5C 213.964,8.1476 216.131,7.31427 218.5,7C 222.167,6.66667 225.833,6.33333 229.5,6C 228.263,5.76791 227.263,5.26791 226.5,4.5 Z"/></g>
<g><path style="opacity:1" fill="#707374" d="M 197.5,8.5 C 198.263,9.26791 199.263,9.76791 200.5,10C 197.768,10.413 195.101,11.0797 192.5,12C 193.167,12.3333 193.833,12.6667 194.5,13C 183.62,16.071 172.953,19.7377 162.5,24C 161.209,25.2917 161.209,26.4583 162.5,27.5C 149.786,33.3587 137.453,40.0253 125.5,47.5C 124.624,47.6309 123.957,47.2975 123.5,46.5C 124.127,45.5832 124.461,44.5832 124.5,43.5C 129.543,40.985 134.21,37.985 138.5,34.5C 142.556,32.9748 146.556,31.1415 150.5,29C 147.639,28.9153 144.972,29.7486 142.5,31.5C 141.304,31.1543 141.304,30.6543 142.5,30C 149.487,26.7298 156.487,23.5631 163.5,20.5C 164.922,20.2914 166.255,19.7914 167.5,19C 166.167,18.3333 166.167,17.6667 167.5,17C 177.458,13.8454 187.458,11.0121 197.5,8.5 Z"/></g>
<g><path style="opacity:1" fill="#a1a3a5" d="M 226.5,4.5 C 227.263,5.26791 228.263,5.76791 229.5,6C 225.833,6.33333 222.167,6.66667 218.5,7C 216.131,7.31427 213.964,8.1476 212,9.5C 209.88,8.54106 207.713,8.3744 205.5,9C 206.833,9.33333 208.167,9.66667 209.5,10C 207.527,10.4955 205.527,10.6621 203.5,10.5C 203.285,12.1788 203.952,13.1788 205.5,13.5C 190.877,16.9289 176.544,21.5956 162.5,27.5C 161.209,26.4583 161.209,25.2917 162.5,24C 172.953,19.7377 183.62,16.071 194.5,13C 193.833,12.6667 193.167,12.3333 192.5,12C 195.101,11.0797 197.768,10.413 200.5,10C 199.263,9.76791 198.263,9.26791 197.5,8.5C 199.401,8.43319 201.234,8.76652 203,9.5C 204.762,9.05563 204.595,8.55563 202.5,8C 205.991,7.26201 209.325,6.42868 212.5,5.5C 217.193,5.45989 221.859,5.12656 226.5,4.5 Z"/></g>
<g><path style="opacity:1" fill="#828385" d="M 296.5,9.5 C 306.587,11.855 316.587,14.5217 326.5,17.5C 326.672,18.4916 326.338,19.1583 325.5,19.5C 313.876,16.0879 302.209,13.4212 290.5,11.5C 292.898,11.7406 294.898,11.0739 296.5,9.5 Z"/></g>
<g><path style="opacity:1" fill="#5f6062" d="M 326.5,17.5 C 338.094,21.4194 349.094,26.5861 359.5,33C 348.291,28.2302 336.957,23.7302 325.5,19.5C 326.338,19.1583 326.672,18.4916 326.5,17.5 Z"/></g>
<g><path style="opacity:0.994" fill="#252323" d="M 136.5,27.5 C 137.873,27.3433 139.207,27.51 140.5,28C 132.5,32.6667 124.5,37.3333 116.5,42C 116.5,43 116.5,44 116.5,45C 99.8125,55.5207 85.1458,68.354 72.5,83.5C 65.0643,90.2679 58.7309,97.9345 53.5,106.5C 52.8333,106.5 52.5,106.833 52.5,107.5C 51.9569,107.44 51.6236,107.107 51.5,106.5C 58.0582,96.7698 65.5582,87.7698 74,79.5C 74.6667,78.8333 74.6667,78.1667 74,77.5C 62.3986,88.9176 52.5652,101.584 44.5,115.5C 27.9014,139.242 16.9014,165.576 11.5,194.5C 4.77354,229.808 4.94021,265.141 12,300.5C 12.7384,304.11 13.9051,307.443 15.5,310.5C 19.6378,328.261 26.3044,344.927 35.5,360.5C 41.1983,373.197 48.5316,384.864 57.5,395.5C 58.1835,395.137 58.8501,394.804 59.5,394.5C 69.0322,410.066 81.3655,423.733 96.5,435.5C 105.091,443.136 114.425,449.803 124.5,455.5C 127.711,458.614 131.378,460.28 135.5,460.5C 157.85,472.841 181.517,480.507 206.5,483.5C 218.826,484.291 231.159,484.958 243.5,485.5C 257.367,485.776 271.034,485.109 284.5,483.5C 312.342,480.328 338.342,471.995 362.5,458.5C 365.46,455.486 366.46,455.819 365.5,459.5C 342.942,472.11 318.942,480.777 293.5,485.5C 283.237,487.156 272.903,488.156 262.5,488.5C 246.387,489.131 230.387,488.131 214.5,485.5C 213.5,485.667 212.5,485.833 211.5,486C 214.471,486.794 217.471,487.461 220.5,488C 218.866,488.494 217.199,488.66 215.5,488.5C 214.167,488.5 212.833,488.5 211.5,488.5C 200.267,485.819 188.934,483.319 177.5,481C 188.326,484.863 199.326,488.03 210.5,490.5C 218.09,492.01 225.757,493.01 233.5,493.5C 251.041,494.829 268.707,494.496 286.5,492.5C 285.41,493.857 284.076,494.857 282.5,495.5C 183.967,505.97 104.801,471.97 45,393.5C 18.8176,355.451 3.65096,313.451 -0.5,267.5C -0.5,255.5 -0.5,243.5 -0.5,231.5C 7.76672,149.783 45.7667,85.9494 113.5,40C 120.901,35.3003 128.568,31.1336 136.5,27.5 Z"/></g>
<g><path style="opacity:1" fill="#44484a" d="M 163.5,20.5 C 156.487,23.5631 149.487,26.7298 142.5,30C 141.304,30.6543 141.304,31.1543 142.5,31.5C 144.972,29.7486 147.639,28.9153 150.5,29C 146.556,31.1415 142.556,32.9748 138.5,34.5C 113.953,47.3756 92.286,64.0422 73.5,84.5C 73.5,83.8333 73.1667,83.5 72.5,83.5C 85.1458,68.354 99.8125,55.5207 116.5,45C 116.5,44 116.5,43 116.5,42C 124.5,37.3333 132.5,32.6667 140.5,28C 139.207,27.51 137.873,27.3433 136.5,27.5C 139.088,25.3754 142.088,24.0421 145.5,23.5C 146.93,23.4208 148.264,23.7542 149.5,24.5C 154.085,22.3052 158.751,20.3052 163.5,18.5C 164.463,18.9698 164.463,19.6365 163.5,20.5 Z"/></g>
<g><path style="opacity:1" fill="#41484b" d="M 124.5,43.5 C 124.461,44.5832 124.127,45.5832 123.5,46.5C 123.957,47.2975 124.624,47.6309 125.5,47.5C 110.288,58.374 96.2878,70.7073 83.5,84.5C 82.8505,82.5648 82.5172,80.5648 82.5,78.5C 95.3068,65.3562 109.307,53.6895 124.5,43.5 Z"/></g>
<g><path style="opacity:1" fill="#232222" d="M 138.5,34.5 C 134.21,37.985 129.543,40.985 124.5,43.5C 109.307,53.6895 95.3068,65.3562 82.5,78.5C 76.1295,83.8695 70.4629,89.8695 65.5,96.5C 63.6281,99.5819 61.2948,102.249 58.5,104.5C 62.7062,97.2862 67.7062,90.6195 73.5,84.5C 92.286,64.0422 113.953,47.3756 138.5,34.5 Z"/></g>
<g><path style="opacity:1" fill="#808385" d="M 372.5,86.5 C 385.927,84.2944 395.427,89.2944 401,101.5C 404.2,114.689 405.867,128.022 406,141.5C 404.177,148.004 400.344,152.837 394.5,156C 291.541,174.822 188.541,193.489 85.5,212C 73.8701,214.101 65.3701,209.935 60,199.5C 56.5804,185.323 54.5804,170.989 54,156.5C 56.1182,149.417 60.6182,144.584 67.5,142C 169.317,123.534 270.984,105.034 372.5,86.5 Z"/></g>
<g><path style="opacity:1" fill="#656869" d="M 72.5,83.5 C 73.1667,83.5 73.5,83.8333 73.5,84.5C 67.7062,90.6195 62.7062,97.2862 58.5,104.5C 56.8058,105.527 55.4725,106.861 54.5,108.5C 54.6716,107.508 54.3382,106.842 53.5,106.5C 58.7309,97.9345 65.0643,90.2679 72.5,83.5 Z"/></g>
<g><path style="opacity:1" fill="#5e6364" d="M 82.5,78.5 C 82.5172,80.5648 82.8505,82.5648 83.5,84.5C 78.1558,91.2059 72.8225,97.8726 67.5,104.5C 66.9216,101.72 66.2549,99.0529 65.5,96.5C 70.4629,89.8695 76.1295,83.8695 82.5,78.5 Z"/></g>
<g><path style="opacity:1" fill="#f2f4f1" d="M 374.5,105.5 C 376.124,105.36 377.29,106.027 378,107.5C 379.587,115.107 380.753,122.774 381.5,130.5C 385.898,130.205 390.231,129.538 394.5,128.5C 395.357,129.736 396.023,131.069 396.5,132.5C 390.272,134.346 383.939,135.679 377.5,136.5C 376.05,127.135 374.384,117.802 372.5,108.5C 372.942,107.261 373.609,106.261 374.5,105.5 Z"/></g>
<g><path style="opacity:1" fill="#f4f5f4" d="M 353.5,109.5 C 355.288,109.215 356.955,109.548 358.5,110.5C 364.63,119.104 369.964,128.104 374.5,137.5C 372.801,137.66 371.134,137.494 369.5,137C 368.268,134.025 366.434,131.525 364,129.5C 360.208,130.438 356.375,131.104 352.5,131.5C 352.089,134.553 351.423,137.553 350.5,140.5C 349.009,141.244 347.509,141.91 346,142.5C 345.833,141.667 345.667,140.833 345.5,140C 347.825,131.066 349.825,122.066 351.5,113C 351.862,111.566 352.528,110.399 353.5,109.5 Z"/></g>
<g><path style="opacity:1" fill="#474747" d="M 52.5,107.5 C 50.8532,110.473 48.8532,113.14 46.5,115.5C 45.8333,115.5 45.1667,115.5 44.5,115.5C 52.5652,101.584 62.3986,88.9176 74,77.5C 74.6667,78.1667 74.6667,78.8333 74,79.5C 65.5582,87.7698 58.0582,96.7698 51.5,106.5C 51.6236,107.107 51.9569,107.44 52.5,107.5 Z"/></g>
<g><path style="opacity:1" fill="#2f2e2e" d="M 58.5,104.5 C 54.9932,110.852 50.9932,116.852 46.5,122.5C 48.649,117.535 51.3157,112.868 54.5,108.5C 55.4725,106.861 56.8058,105.527 58.5,104.5 Z"/></g>
<g><path style="opacity:1" fill="#f5f5f2" d="M 333.5,113.5 C 335.167,113.5 336.833,113.5 338.5,113.5C 339.736,122.917 341.403,132.25 343.5,141.5C 342.264,142.357 340.931,143.023 339.5,143.5C 332.549,138.052 326.049,132.052 320,125.5C 320.175,132.555 321.008,139.555 322.5,146.5C 320.833,146.5 319.167,146.5 317.5,146.5C 315.508,136.877 314.008,127.211 313,117.5C 314.388,116.446 315.888,116.28 317.5,117C 323.38,123.18 329.547,129.014 336,134.5C 335.581,127.482 334.748,120.482 333.5,113.5 Z"/></g>
<g><path style="opacity:1" fill="#8a898f" d="M 355.5,116.5 C 357.966,118.74 359.966,121.407 361.5,124.5C 359.392,125.944 357.059,126.61 354.5,126.5C 355.051,123.193 355.384,119.86 355.5,116.5 Z"/></g>
<g><path style="opacity:1" fill="#f6f6f3" d="M 291.5,120.5 C 307.499,119.523 313.999,126.856 311,142.5C 301.295,154.666 291.962,154.332 283,141.5C 282.333,137.5 282.333,133.5 283,129.5C 285.362,125.973 288.196,122.973 291.5,120.5 Z"/></g>
<g><path style="opacity:1" fill="#f3f3f0" d="M 267.5,124.5 C 270.167,124.5 272.833,124.5 275.5,124.5C 275.672,126.492 275.005,128.158 273.5,129.5C 275.082,135.404 276.249,141.404 277,147.5C 278.361,149.028 279.528,150.695 280.5,152.5C 277.435,154.25 274.102,155.25 270.5,155.5C 270.766,152.334 271.099,149.167 271.5,146C 270.668,140.512 270.002,135.012 269.5,129.5C 268.5,129.5 267.5,129.5 266.5,129.5C 266.366,127.708 266.699,126.042 267.5,124.5 Z"/></g>
<g><path style="opacity:1" fill="#828588" d="M 294.5,124.5 C 305.917,126.055 309.417,132.055 305,142.5C 298.211,148.424 292.544,147.424 288,139.5C 285.865,132.45 288.032,127.45 294.5,124.5 Z"/></g>
<g><path style="opacity:1" fill="#808282" d="M 65.5,96.5 C 66.2549,99.0529 66.9216,101.72 67.5,104.5C 59.1139,116.612 51.7805,129.279 45.5,142.5C 46.1927,138.206 45.1927,134.539 42.5,131.5C 44.0909,128.648 45.4242,125.648 46.5,122.5C 50.9932,116.852 54.9932,110.852 58.5,104.5C 61.2948,102.249 63.6281,99.5819 65.5,96.5 Z"/></g>
<g><path style="opacity:1" fill="#f2f4f2" d="M 257.5,126.5 C 258.833,126.5 260.167,126.5 261.5,126.5C 261.5,128.167 261.5,129.833 261.5,131.5C 259.167,131.5 256.833,131.5 254.5,131.5C 255.511,139.547 256.844,147.547 258.5,155.5C 257.638,157.767 255.971,158.767 253.5,158.5C 252.058,150.184 250.725,141.85 249.5,133.5C 246.518,133.963 243.518,134.296 240.5,134.5C 240.5,132.833 240.5,131.167 240.5,129.5C 246.4,129.117 252.067,128.117 257.5,126.5 Z"/></g>
<g><path style="opacity:1" fill="#f6f6f3" d="M 223.5,132.5 C 225.467,132.261 227.301,132.594 229,133.5C 233.667,140.833 238.333,148.167 243,155.5C 244.009,157.025 244.509,158.692 244.5,160.5C 242.712,160.785 241.045,160.452 239.5,159.5C 238.14,156.772 236.307,154.439 234,152.5C 230.872,153.204 227.706,153.704 224.5,154C 222.498,157.113 221.498,160.613 221.5,164.5C 219.833,164.5 218.167,164.5 216.5,164.5C 218.026,153.552 220.359,142.886 223.5,132.5 Z"/></g>
<g><path style="opacity:1" fill="#f4f4f2" d="M 203.5,136.5 C 205.167,136.5 206.833,136.5 208.5,136.5C 210.167,146.5 211.833,156.5 213.5,166.5C 211.011,166.702 208.677,166.202 206.5,165C 201,159.5 195.5,154 190,148.5C 190.126,154.552 190.96,160.552 192.5,166.5C 192.199,169.489 190.532,170.822 187.5,170.5C 185.77,161.017 184.104,151.517 182.5,142C 183.638,139.955 185.305,139.288 187.5,140C 193.364,146.199 199.531,152.032 206,157.5C 205.593,150.481 204.76,143.481 203.5,136.5 Z"/></g>
<g><path style="opacity:1" fill="#80848b" d="M 448.5,150.5 C 447.359,153.64 447.192,156.973 448,160.5C 450.016,173.329 452.516,185.996 455.5,198.5C 454.065,196.402 452.898,194.069 452,191.5C 444.089,156.192 429.589,124.025 408.5,95C 409.167,94.3333 409.833,94.3333 410.5,95C 426.152,111.48 438.819,129.98 448.5,150.5 Z"/></g>
<g><path style="opacity:1" fill="#85878f" d="M 226.5,140.5 C 228.636,142.812 230.636,145.312 232.5,148C 229.832,148.567 227.166,149.067 224.5,149.5C 225.01,146.461 225.677,143.461 226.5,140.5 Z"/></g>
<g><path style="opacity:1" fill="#f5f6f5" d="M 162.5,143.5 C 165.85,143.335 169.183,143.502 172.5,144C 177.224,146.435 178.724,150.269 177,155.5C 176.363,157.303 175.197,158.636 173.5,159.5C 177.318,162.818 180.985,166.318 184.5,170C 182.635,171.301 180.635,171.635 178.5,171C 175,167.5 171.5,164 168,160.5C 166.491,161.09 164.991,161.756 163.5,162.5C 164.445,166.448 165.112,170.448 165.5,174.5C 163.234,174.859 161.401,174.192 160,172.5C 158.5,163.831 157,155.164 155.5,146.5C 157.621,144.982 159.954,143.982 162.5,143.5 Z"/></g>
<g><path style="opacity:1" fill="#393838" d="M 46.5,122.5 C 45.4242,125.648 44.0909,128.648 42.5,131.5C 39.1524,137.532 35.8191,143.532 32.5,149.5C 35.8743,139.749 40.541,130.749 46.5,122.5 Z"/></g>
<g><path style="opacity:1" fill="#f2f3f2" d="M 145.5,146.5 C 147.5,146.5 149.5,146.5 151.5,146.5C 151.773,148.451 151.107,149.951 149.5,151C 145.886,151.936 142.22,152.436 138.5,152.5C 138.678,155.216 139.178,157.883 140,160.5C 144.039,159.244 148.206,158.577 152.5,158.5C 152.5,160.167 152.5,161.833 152.5,163.5C 148.5,163.833 144.5,164.167 140.5,164.5C 141.159,167.455 141.492,170.455 141.5,173.5C 146.484,172.725 151.484,172.058 156.5,171.5C 156.714,173.144 156.38,174.644 155.5,176C 149.581,177.481 143.581,178.314 137.5,178.5C 136.363,169.234 134.696,160.068 132.5,151C 132.645,150.228 132.978,149.561 133.5,149C 137.699,148.472 141.699,147.639 145.5,146.5 Z"/></g>
<g><path style="opacity:1" fill="#828386" d="M 166.5,147.5 C 171.494,147.329 173.328,149.662 172,154.5C 169.003,155.866 165.836,156.533 162.5,156.5C 161.908,153.873 161.575,151.206 161.5,148.5C 163.415,148.784 165.081,148.451 166.5,147.5 Z"/></g>
<g><path style="opacity:1" fill="#f4f6f3" d="M 123.5,150.5 C 125.833,150.5 128.167,150.5 130.5,150.5C 130.5,151.833 130.5,153.167 130.5,154.5C 127.746,154.784 125.08,155.451 122.5,156.5C 124.59,164.709 125.924,173.042 126.5,181.5C 124.833,181.5 123.167,181.5 121.5,181.5C 121.033,174.062 119.866,166.728 118,159.5C 115.544,157.679 112.711,157.012 109.5,157.5C 109.5,156.167 109.5,154.833 109.5,153.5C 114.375,152.915 119.042,151.915 123.5,150.5 Z"/></g>
<g><path style="opacity:1" fill="#8b8f96" d="M 466.5,325.5 C 464.955,324.77 464.122,323.437 464,321.5C 462.006,310.217 460.506,298.883 459.5,287.5C 459.816,282.156 460.316,276.822 461,271.5C 462.976,246.755 461.143,222.422 455.5,198.5C 452.516,185.996 450.016,173.329 448,160.5C 447.192,156.973 447.359,153.64 448.5,150.5C 462.109,179.939 469.609,210.939 471,243.5C 472.284,202.537 462.451,164.537 441.5,129.5C 441.846,128.304 442.346,128.304 443,129.5C 481.345,191.089 489.178,256.422 466.5,325.5 Z"/></g>
<g><path style="opacity:1" fill="#41403f" d="M 32.5,149.5 C 31.0349,154.562 29.3682,159.562 27.5,164.5C 27.0679,165.71 26.4013,166.71 25.5,167.5C 26.7497,161.013 29.083,155.013 32.5,149.5 Z"/></g>
<g><path style="opacity:1" fill="#f4f5f2" d="M 102.5,154.5 C 104.167,154.5 105.833,154.5 107.5,154.5C 108.98,164.529 110.647,174.529 112.5,184.5C 110.473,184.662 108.473,184.495 106.5,184C 100.985,178.318 95.3187,172.818 89.5,167.5C 89.0698,173.345 89.7365,179.178 91.5,185C 90.3104,188.625 88.4771,189.125 86,186.5C 84.907,178.086 83.407,169.753 81.5,161.5C 81.8167,158.345 83.4834,157.178 86.5,158C 92.3644,164.199 98.5311,170.032 105,175.5C 104.221,168.541 103.388,161.541 102.5,154.5 Z"/></g>
<g><path style="opacity:1" fill="#9c9c9b" d="M 42.5,131.5 C 45.1927,134.539 46.1927,138.206 45.5,142.5C 39.602,156.606 34.602,170.939 30.5,185.5C 30.6658,180.821 30.4992,176.155 30,171.5C 29.8442,168.809 29.0109,166.476 27.5,164.5C 29.3682,159.562 31.0349,154.562 32.5,149.5C 35.8191,143.532 39.1524,137.532 42.5,131.5 Z"/></g>
<g><path style="opacity:1" fill="#f3f5f3" d="M 74.5,159.5 C 75.0845,167.971 76.0845,176.638 77.5,185.5C 78.5,185.5 79.5,185.5 80.5,185.5C 80.5,186.833 80.5,188.167 80.5,189.5C 77.5448,190.159 74.5448,190.492 71.5,190.5C 71.59,188.304 71.9233,186.137 72.5,184C 71.1197,177.885 70.1197,171.719 69.5,165.5C 68.5,165.5 67.5,165.5 66.5,165.5C 66.2865,163.856 66.6198,162.356 67.5,161C 70.0356,160.814 72.369,160.314 74.5,159.5 Z"/></g>
<g><path style="opacity:1" fill="#fafafa" d="M 405.5,166.5 C 426.023,164.854 436.69,174.354 437.5,195C 437.793,201.953 435.793,208.12 431.5,213.5C 437.377,223.921 442.71,234.588 447.5,245.5C 442.954,245.84 438.454,246.507 434,247.5C 428.906,240.316 424.572,232.65 421,224.5C 420.059,222.939 418.892,221.605 417.5,220.5C 417.167,221.333 416.833,222.167 416.5,223C 417.96,231.849 419.127,240.683 420,249.5C 415.81,250.268 411.644,251.268 407.5,252.5C 407.167,252.167 406.833,251.833 406.5,251.5C 401.446,224.231 396.779,196.898 392.5,169.5C 397.092,169.118 401.425,168.118 405.5,166.5 Z"/></g>
<g><path style="opacity:1" fill="#4e4c4c" d="M 25.5,167.5 C 22.8846,176.016 20.8846,184.682 19.5,193.5C 18.7321,194.263 18.2321,195.263 18,196.5C 18.5805,186.272 21.0805,176.605 25.5,167.5 Z"/></g>
<g><path style="opacity:1" fill="#f8f8f8" d="M 381.5,170.5 C 383.167,170.5 384.833,170.5 386.5,170.5C 386.833,175.167 387.167,179.833 387.5,184.5C 382.167,185.5 376.833,186.5 371.5,187.5C 372.314,194.201 373.314,200.867 374.5,207.5C 379.851,206.963 385.184,206.296 390.5,205.5C 390.846,210.216 391.513,214.883 392.5,219.5C 387.485,220.085 382.485,220.752 377.5,221.5C 378.408,228.521 379.408,235.521 380.5,242.5C 386.5,241.5 392.5,240.5 398.5,239.5C 399.487,244.117 400.154,248.784 400.5,253.5C 390.819,255.002 381.153,256.669 371.5,258.5C 370.5,258.167 369.5,257.833 368.5,257.5C 363.509,230.242 358.842,202.908 354.5,175.5C 363.777,174.71 372.777,173.043 381.5,170.5 Z"/></g>
<g><path style="opacity:1" fill="#f8f8f8" d="M 339.5,177.5 C 342.545,177.508 345.545,177.841 348.5,178.5C 349.083,182.337 349.75,186.17 350.5,190C 350.167,191.167 349.833,192.333 349.5,193.5C 339.012,190.809 334.012,194.976 334.5,206C 335.083,214.582 336.25,223.082 338,231.5C 339.229,236.529 341.229,241.196 344,245.5C 349.284,249.359 354.451,249.026 359.5,244.5C 361.576,249.255 362.243,254.089 361.5,259C 346.448,266.387 335.281,262.554 328,247.5C 322.069,232.057 319.402,216.057 320,199.5C 321.876,187.804 328.376,180.471 339.5,177.5 Z"/></g>
<g><path style="opacity:1" fill="#201e1e" d="M 409.5,180.5 C 417.117,180.28 421.617,183.947 423,191.5C 424.509,197.979 422.676,203.146 417.5,207C 416.207,207.49 414.873,207.657 413.5,207.5C 411.431,198.621 410.098,189.621 409.5,180.5 Z"/></g>
<g><path style="opacity:1" fill="#f9f9f9" d="M 304.5,184.5 C 305.833,184.5 307.167,184.5 308.5,184.5C 313.491,212.114 318.158,239.781 322.5,267.5C 318.756,267.685 315.089,268.352 311.5,269.5C 302.94,256.731 295.107,243.398 288,229.5C 290.376,243.759 292.542,258.092 294.5,272.5C 289.784,272.846 285.117,273.513 280.5,274.5C 276.09,246.785 271.424,219.119 266.5,191.5C 270.185,190.996 273.851,190.33 277.5,189.5C 278.5,189.833 279.5,190.167 280.5,190.5C 287,202.167 293.5,213.833 300,225.5C 298.827,212.454 296.993,199.454 294.5,186.5C 298.011,186.101 301.344,185.434 304.5,184.5 Z"/></g>
<g><path style="opacity:0.675" fill="#656363" d="M 486.5,180.5 C 487.924,182.515 488.59,184.848 488.5,187.5C 487.076,185.485 486.41,183.152 486.5,180.5 Z"/></g>
<g><path style="opacity:1" fill="#8e8c8b" d="M 44.5,115.5 C 29.8991,140.317 19.2324,166.65 12.5,194.5C 12.1667,194.5 11.8333,194.5 11.5,194.5C 16.9014,165.576 27.9014,139.242 44.5,115.5 Z"/></g>
<g><path style="opacity:1" fill="#959aa1" d="M 480.5,310.5 C 479.883,310.611 479.383,310.944 479,311.5C 478.623,307.981 478.123,304.481 477.5,301C 478.286,297.542 478.62,294.042 478.5,290.5C 487.877,233.417 477.877,180.083 448.5,130.5C 448.846,129.304 449.346,129.304 450,130.5C 455.333,139.167 460.667,147.833 466,156.5C 491.634,205.846 496.468,257.18 480.5,310.5 Z"/></g>
<g><path style="opacity:1" fill="#f9f9f9" d="M 253.5,193.5 C 255.833,193.5 258.167,193.5 260.5,193.5C 261.327,197.807 261.993,202.14 262.5,206.5C 256.782,207.222 251.115,208.222 245.5,209.5C 246.664,216.142 247.664,222.809 248.5,229.5C 253.833,228.833 259.167,228.167 264.5,227.5C 265.487,232.117 266.154,236.784 266.5,241.5C 261.357,241.853 256.357,242.853 251.5,244.5C 253.142,251.067 254.142,257.734 254.5,264.5C 259.004,263.916 263.504,263.25 268,262.5C 269.5,262.833 271,263.167 272.5,263.5C 274.145,267.325 274.812,271.325 274.5,275.5C 263.908,277.599 253.241,279.265 242.5,280.5C 238.019,252.798 233.352,225.131 228.5,197.5C 237.04,196.711 245.373,195.377 253.5,193.5 Z"/></g>
<g><path style="opacity:1" fill="#f8f8f8" d="M 217.5,199.5 C 218.833,199.5 220.167,199.5 221.5,199.5C 225.423,221.448 229.089,243.448 232.5,265.5C 231.203,282.165 222.203,289.331 205.5,287C 197.388,282.946 192.555,276.446 191,267.5C 187.498,247.156 183.998,226.822 180.5,206.5C 185.47,205.647 190.47,204.98 195.5,204.5C 198.515,225.565 202.015,246.565 206,267.5C 208.012,273.659 211.678,274.993 217,271.5C 217.667,266.5 217.667,261.5 217,256.5C 213.414,238.228 210.247,219.894 207.5,201.5C 211.122,201.678 214.456,201.011 217.5,199.5 Z"/></g>
<g><path style="opacity:1" fill="#9d9b9a" d="M 53.5,106.5 C 54.3382,106.842 54.6716,107.508 54.5,108.5C 51.3157,112.868 48.649,117.535 46.5,122.5C 40.541,130.749 35.8743,139.749 32.5,149.5C 29.083,155.013 26.7497,161.013 25.5,167.5C 21.0805,176.605 18.5805,186.272 18,196.5C 18.2321,195.263 18.7321,194.263 19.5,193.5C 20.2216,193.082 20.7216,192.416 21,191.5C 20.2893,198.652 19.1227,205.652 17.5,212.5C 16.6587,211.991 16.1587,212.657 16,214.5C 15.7827,209.625 16.2827,204.792 17.5,200C 17.3333,199.167 17.1667,198.333 17,197.5C 14.6866,206.04 13.6866,214.707 14,223.5C 14.3333,221.167 14.6667,218.833 15,216.5C 15.7466,219.924 15.58,223.257 14.5,226.5C 14.665,229.85 14.4983,233.183 14,236.5C 13.6667,232.833 13.3333,229.167 13,225.5C 12.5002,236.495 12.3335,247.495 12.5,258.5C 11.8333,246.5 11.1667,234.5 10.5,222.5C 14.3072,183.928 26.3072,148.261 46.5,115.5C 48.8532,113.14 50.8532,110.473 52.5,107.5C 52.5,106.833 52.8333,106.5 53.5,106.5 Z"/></g>
<g><path style="opacity:1" fill="#f9f9f9" d="M 156.5,210.5 C 158.5,210.5 160.5,210.5 162.5,210.5C 166.352,233.126 170.018,255.793 173.5,278.5C 178.945,278.431 184.278,277.764 189.5,276.5C 190.167,281.167 190.833,285.833 191.5,290.5C 181.419,291.736 171.419,293.402 161.5,295.5C 157.266,268.094 152.599,240.761 147.5,213.5C 150.425,212.047 153.425,211.047 156.5,210.5 Z"/></g>
<g><path style="opacity:1" fill="#f9f9f9" d="M 135.5,214.5 C 137.833,214.5 140.167,214.5 142.5,214.5C 143.007,218.86 143.673,223.193 144.5,227.5C 139.366,227.966 134.366,228.966 129.5,230.5C 130.284,237.202 131.284,243.869 132.5,250.5C 137.167,249.833 141.833,249.167 146.5,248.5C 147.487,253.117 148.154,257.784 148.5,262.5C 144.087,262.687 139.754,263.354 135.5,264.5C 136.922,276.213 138.589,287.879 140.5,299.5C 135.833,300.167 131.167,300.833 126.5,301.5C 121.647,273.862 116.98,246.195 112.5,218.5C 120.319,217.285 127.986,215.952 135.5,214.5 Z"/></g>
<g><path style="opacity:1" fill="#464444" d="M 17.5,212.5 C 17.1873,217.353 16.5206,222.02 15.5,226.5C 15.1667,226.5 14.8333,226.5 14.5,226.5C 15.58,223.257 15.7466,219.924 15,216.5C 14.6667,218.833 14.3333,221.167 14,223.5C 13.6866,214.707 14.6866,206.04 17,197.5C 17.1667,198.333 17.3333,199.167 17.5,200C 16.2827,204.792 15.7827,209.625 16,214.5C 16.1587,212.657 16.6587,211.991 17.5,212.5 Z"/></g>
<g><path style="opacity:1" fill="#bab7b6" d="M 27.5,164.5 C 29.0109,166.476 29.8442,168.809 30,171.5C 30.4992,176.155 30.6658,180.821 30.5,185.5C 23.3772,221.329 24.2105,256.995 33,292.5C 34.8886,302.253 38.3886,311.253 43.5,319.5C 45.1789,334.931 47.5122,350.264 50.5,365.5C 50.4805,366.726 50.1471,367.726 49.5,368.5C 37.8074,349.283 29.3074,328.616 24,306.5C 16.8897,280.285 14.0564,253.618 15.5,226.5C 16.5206,222.02 17.1873,217.353 17.5,212.5C 19.1227,205.652 20.2893,198.652 21,191.5C 20.7216,192.416 20.2216,193.082 19.5,193.5C 20.8846,184.682 22.8846,176.016 25.5,167.5C 26.4013,166.71 27.0679,165.71 27.5,164.5 Z"/></g>
<g><path style="opacity:1" fill="#f9f9f9" d="M 101.5,220.5 C 102.833,220.5 104.167,220.5 105.5,220.5C 109.687,248.248 114.354,275.915 119.5,303.5C 115.389,303.522 111.389,304.189 107.5,305.5C 99.1624,292.163 91.3291,278.496 84,264.5C 86.4472,279.12 88.9472,293.787 91.5,308.5C 86.4246,308.649 81.4246,309.315 76.5,310.5C 72.5795,282.727 67.9129,255.06 62.5,227.5C 66.6803,226.956 70.847,226.29 75,225.5C 75.772,225.645 76.4387,225.978 77,226.5C 83.6809,238.532 90.3476,250.532 97,262.5C 95.8092,249.72 93.6425,237.054 90.5,224.5C 90.8178,223.353 91.4844,222.519 92.5,222C 95.6946,221.819 98.6946,221.319 101.5,220.5 Z"/></g>
<g><path style="opacity:1" fill="#f9f9f9" d="M 48.5,229.5 C 50.8333,229.5 53.1667,229.5 55.5,229.5C 60.4901,257.107 65.1567,284.774 69.5,312.5C 64.5068,312.916 59.5068,313.249 54.5,313.5C 50.6692,286.016 46.0025,258.683 40.5,231.5C 43.4282,231.435 46.0948,230.768 48.5,229.5 Z"/></g>
<g><path style="opacity:1" fill="#2b2929" d="M 44.5,115.5 C 45.1667,115.5 45.8333,115.5 46.5,115.5C 26.3072,148.261 14.3072,183.928 10.5,222.5C 6.5494,269.464 14.8827,314.13 35.5,356.5C 35.5,357.167 35.1667,357.5 34.5,357.5C 27.1638,342.14 20.8305,326.473 15.5,310.5C 13.8638,300.15 12.0305,289.817 10,279.5C 6.09635,251.014 6.92968,222.681 12.5,194.5C 19.2324,166.65 29.8991,140.317 44.5,115.5 Z"/></g>
<g><path style="opacity:1" fill="#242222" d="M 14.5,226.5 C 14.8333,226.5 15.1667,226.5 15.5,226.5C 14.0564,253.618 16.8897,280.285 24,306.5C 29.3074,328.616 37.8074,349.283 49.5,368.5C 50.6803,371.54 52.347,374.206 54.5,376.5C 59.3529,385.354 65.3529,393.354 72.5,400.5C 80.4394,411.441 89.7728,421.107 100.5,429.5C 103.974,432.802 107.641,435.968 111.5,439C 112.549,439.492 113.549,439.326 114.5,438.5C 117.917,441.255 121.583,443.588 125.5,445.5C 129.833,448.669 134.5,451.336 139.5,453.5C 155.185,462.176 171.851,468.51 189.5,472.5C 200.222,475.795 211.222,477.795 222.5,478.5C 236.933,480.635 251.266,480.969 265.5,479.5C 273.365,479.429 281.031,478.762 288.5,477.5C 290.857,477.337 293.19,477.503 295.5,478C 289.141,479.502 282.808,481.002 276.5,482.5C 265.521,483.32 254.521,483.653 243.5,483.5C 230.414,482.961 217.414,481.628 204.5,479.5C 186.436,475.935 168.936,470.268 152,462.5C 151.5,462.667 151,462.833 150.5,463C 157.665,466.721 164.998,470.054 172.5,473C 172,473.167 171.5,473.333 171,473.5C 158.731,469.026 146.897,463.693 135.5,457.5C 122.636,449.644 110.303,440.977 98.5,431.5C 83.7258,418.397 70.3925,404.063 58.5,388.5C 30.9441,349.675 15.6108,306.342 12.5,258.5C 12.3335,247.495 12.5002,236.495 13,225.5C 13.3333,229.167 13.6667,232.833 14,236.5C 14.4983,233.183 14.665,229.85 14.5,226.5 Z"/></g>
<g><path style="opacity:1" fill="#a8a5a3" d="M 11.5,194.5 C 11.8333,194.5 12.1667,194.5 12.5,194.5C 6.92968,222.681 6.09635,251.014 10,279.5C 12.0305,289.817 13.8638,300.15 15.5,310.5C 13.9051,307.443 12.7384,304.11 12,300.5C 4.94021,265.141 4.77354,229.808 11.5,194.5 Z"/></g>
<g><path style="opacity:1" fill="#808488" d="M 378.5,300.5 C 379.511,307.084 380.844,313.584 382.5,320C 381.906,320.464 381.239,320.631 380.5,320.5C 372.785,315.284 366.618,308.618 362,300.5C 359.109,279.225 368.275,270.225 389.5,273.5C 390.538,277.769 391.205,282.102 391.5,286.5C 387.192,285.632 382.859,285.466 378.5,286C 373.446,290.672 373.446,295.506 378.5,300.5 Z"/></g>
<g><path style="opacity:1" fill="#b8babc" d="M 322.5,283.5 C 323.5,283.5 324.5,283.5 325.5,283.5C 330.322,309.126 334.989,334.792 339.5,360.5C 335.557,361.486 331.557,362.152 327.5,362.5C 323.6,336.432 319.266,310.432 314.5,284.5C 317.086,283.52 319.753,283.187 322.5,283.5 Z"/></g>
<g><path style="opacity:1" fill="#a4a6a9" d="M 346.5,286.5 C 350.309,307.245 354.309,327.911 358.5,348.5C 354.348,355.753 348.014,359.753 339.5,360.5C 334.989,334.792 330.322,309.126 325.5,283.5C 324.5,283.5 323.5,283.5 322.5,283.5C 327.225,281.599 332.225,281.099 337.5,282C 341.035,282.663 344.035,284.163 346.5,286.5 Z"/></g>
<g><path style="opacity:1" fill="#cacbcc" d="M 280.5,290.5 C 298.045,286.205 308.878,292.872 313,310.5C 314.59,319.147 312.757,326.981 307.5,334C 312.38,343.595 317.38,353.095 322.5,362.5C 318.76,364.232 314.76,365.232 310.5,365.5C 309.5,365.167 308.5,364.833 307.5,364.5C 304.409,357.982 301.075,351.649 297.5,345.5C 298.139,344.903 298.472,344.07 298.5,343C 297.392,337.643 296.059,332.476 294.5,327.5C 301.166,319.863 301.166,312.03 294.5,304C 291.986,302.748 289.32,302.248 286.5,302.5C 287.568,301.566 288.901,301.232 290.5,301.5C 289.674,297.864 289.008,294.197 288.5,290.5C 285.833,290.5 283.167,290.5 280.5,290.5 Z"/></g>
<g><path style="opacity:1" fill="#d3d4d5" d="M 280.5,290.5 C 283.167,290.5 285.833,290.5 288.5,290.5C 289.008,294.197 289.674,297.864 290.5,301.5C 288.901,301.232 287.568,301.566 286.5,302.5C 287.469,310.849 288.636,319.183 290,327.5C 291.414,328.413 292.914,328.413 294.5,327.5C 296.059,332.476 297.392,337.643 298.5,343C 298.472,344.07 298.139,344.903 297.5,345.5C 296.922,342.63 295.255,340.963 292.5,340.5C 294.476,349.738 295.809,359.071 296.5,368.5C 292.087,368.687 287.754,369.354 283.5,370.5C 279.019,344.132 274.352,317.798 269.5,291.5C 273.154,291.058 276.821,290.724 280.5,290.5 Z"/></g>
<g><path style="opacity:1" fill="#989b9f" d="M 346.5,286.5 C 349.764,287.927 352.264,290.261 354,293.5C 363.401,311.346 364.901,329.68 358.5,348.5C 354.309,327.911 350.309,307.245 346.5,286.5 Z"/></g>
<g><path style="opacity:1" fill="#1c1a1a" d="M 330.5,294.5 C 337.597,294.301 342.097,297.634 344,304.5C 348.599,316.889 349.599,329.555 347,342.5C 345.59,345.789 343.09,347.456 339.5,347.5C 336.778,329.778 333.778,312.112 330.5,294.5 Z"/></g>
<g><path style="opacity:1" fill="#b2b4b6" d="M 248.5,295.5 C 247.737,296.268 246.737,296.768 245.5,297C 249.017,308.91 251.351,321.076 252.5,333.5C 250.255,330.246 248.755,326.58 248,322.5C 247.5,331.16 247.334,339.827 247.5,348.5C 250.443,348.02 253.11,347.02 255.5,345.5C 256.043,345.56 256.376,345.893 256.5,346.5C 255.624,347.251 254.624,347.751 253.5,348C 254.24,351.662 255.24,355.162 256.5,358.5C 254.095,359.768 251.428,360.435 248.5,360.5C 247.674,364.982 247.174,369.649 247,374.5C 243.389,356.896 240.056,339.229 237,321.5C 236.5,313.507 236.334,305.507 236.5,297.5C 240.5,296.833 244.5,296.167 248.5,295.5 Z"/></g>
<g><path style="opacity:1" fill="#8a8f91" d="M 219.5,381.5 C 218.275,380.848 217.608,379.681 217.5,378C 216.2,369.546 214.533,361.213 212.5,353C 213.817,350.063 213.817,347.23 212.5,344.5C 212,331.825 211.333,319.158 210.5,306.5C 210.833,305.167 211.167,303.833 211.5,302.5C 215.769,301.462 220.102,300.795 224.5,300.5C 225.128,327.495 225.461,354.495 225.5,381.5C 223.5,381.5 221.5,381.5 219.5,381.5 Z"/></g>
<g><path style="opacity:1" fill="#1f1d1d" d="M 286.5,302.5 C 289.32,302.248 291.986,302.748 294.5,304C 301.166,312.03 301.166,319.863 294.5,327.5C 292.914,328.413 291.414,328.413 290,327.5C 288.636,319.183 287.469,310.849 286.5,302.5 Z"/></g>
<g><path style="opacity:1" fill="#767b7d" d="M 193.5,305.5 C 195.766,305.141 197.599,305.808 199,307.5C 203.183,321.237 207.516,334.903 212,348.5C 212.49,347.207 212.657,345.873 212.5,344.5C 213.817,347.23 213.817,350.063 212.5,353C 214.533,361.213 216.2,369.546 217.5,378C 217.608,379.681 218.275,380.848 219.5,381.5C 216.848,383.202 214.015,383.536 211,382.5C 207.105,369.053 202.939,355.72 198.5,342.5C 195.528,330.607 192.861,318.607 190.5,306.5C 191.791,306.737 192.791,306.404 193.5,305.5 Z"/></g>
<g><path style="opacity:1" fill="#75797e" d="M 378.5,300.5 C 386.086,305.582 392.919,311.582 399,318.5C 402.334,325.467 403.334,332.8 402,340.5C 396.092,351.184 387.259,355.184 375.5,352.5C 378.898,352.82 382.232,352.487 385.5,351.5C 384.618,348.209 383.952,344.876 383.5,341.5C 381.901,341.768 380.568,341.434 379.5,340.5C 389.828,339.17 391.995,334.17 386,325.5C 383.672,324.336 381.838,322.67 380.5,320.5C 381.239,320.631 381.906,320.464 382.5,320C 380.844,313.584 379.511,307.084 378.5,300.5 Z"/></g>
<g><path style="opacity:1" fill="#646a6c" d="M 193.5,305.5 C 192.791,306.404 191.791,306.737 190.5,306.5C 192.861,318.607 195.528,330.607 198.5,342.5C 197.79,356.839 197.457,371.173 197.5,385.5C 196.504,385.586 195.671,385.252 195,384.5C 192.11,371.043 189.277,357.71 186.5,344.5C 185.985,331.839 185.652,319.173 185.5,306.5C 188.167,306.167 190.833,305.833 193.5,305.5 Z"/></g>
<g><path style="opacity:1" fill="#bfc1c3" d="M 248.5,295.5 C 249.5,295.5 250.5,295.5 251.5,295.5C 260.425,320.602 269.758,345.602 279.5,370.5C 275.403,371.767 271.236,372.767 267,373.5C 264.613,369.052 262.446,364.386 260.5,359.5C 259.311,358.571 257.978,358.238 256.5,358.5C 255.24,355.162 254.24,351.662 253.5,348C 254.624,347.751 255.624,347.251 256.5,346.5C 256.376,345.893 256.043,345.56 255.5,345.5C 254.488,341.484 253.488,337.484 252.5,333.5C 251.351,321.076 249.017,308.91 245.5,297C 246.737,296.768 247.737,296.268 248.5,295.5 Z"/></g>
<g><path style="opacity:1" fill="#4d5457" d="M 186.5,344.5 C 189.277,357.71 192.11,371.043 195,384.5C 195.671,385.252 196.504,385.586 197.5,385.5C 193.44,386.544 189.273,387.544 185,388.5C 176.079,363.237 167.245,337.904 158.5,312.5C 163.191,310.109 168.024,309.442 173,310.5C 177.043,324.92 181.376,339.253 186,353.5C 186.498,350.518 186.665,347.518 186.5,344.5 Z"/></g>
<g><path style="opacity:1" fill="#75797f" d="M 459.5,287.5 C 460.506,298.883 462.006,310.217 464,321.5C 464.122,323.437 464.955,324.77 466.5,325.5C 463.728,333.837 460.395,341.837 456.5,349.5C 455.113,347.123 454.279,344.457 454,341.5C 453.541,333.825 453.041,326.158 452.5,318.5C 454.739,308.027 457.072,297.694 459.5,287.5 Z"/></g>
<g><path style="opacity:1" fill="#9b9796" d="M 15.5,310.5 C 20.8305,326.473 27.1638,342.14 34.5,357.5C 35.1098,358.391 35.4431,359.391 35.5,360.5C 26.3044,344.927 19.6378,328.261 15.5,310.5 Z"/></g>
<g><path style="opacity:1" fill="#4e5456" d="M 146.5,316.5 C 149.955,331.672 153.122,347.005 156,362.5C 156.499,367.155 156.666,371.821 156.5,376.5C 155.209,376.263 154.209,376.596 153.5,377.5C 152.5,377.5 151.5,377.5 150.5,377.5C 150.649,374.393 150.149,371.393 149,368.5C 148.583,367.244 147.75,366.577 146.5,366.5C 148.042,365.837 149.709,365.17 151.5,364.5C 148.484,356.385 145.484,348.385 142.5,340.5C 142.982,339.584 143.315,338.584 143.5,337.5C 142.112,329.961 140.445,322.628 138.5,315.5C 140.838,313.96 143.505,313.294 146.5,313.5C 146.5,314.5 146.5,315.5 146.5,316.5 Z"/></g>
<g><path style="opacity:1" fill="#81858c" d="M 478.5,290.5 C 478.62,294.042 478.286,297.542 477.5,301C 478.123,304.481 478.623,307.981 479,311.5C 479.383,310.944 479.883,310.611 480.5,310.5C 476.403,322.14 471.736,333.474 466.5,344.5C 465.527,342.052 465.194,339.385 465.5,336.5C 471.062,321.416 475.395,306.083 478.5,290.5 Z"/></g>
<g><path style="opacity:1" fill="#5d6263" d="M 138.5,315.5 C 140.445,322.628 142.112,329.961 143.5,337.5C 143.315,338.584 142.982,339.584 142.5,340.5C 142.5,349.167 142.5,357.833 142.5,366.5C 143.833,366.5 145.167,366.5 146.5,366.5C 147.75,366.577 148.583,367.244 149,368.5C 150.149,371.393 150.649,374.393 150.5,377.5C 148.283,378.369 145.95,378.702 143.5,378.5C 143.5,380.5 143.5,382.5 143.5,384.5C 142.805,376.246 141.639,367.913 140,359.5C 139,357.5 138,355.5 137,353.5C 135.493,345.137 133.826,336.804 132,328.5C 131.829,337.01 131.329,345.343 130.5,353.5C 130.405,340.819 130.739,328.152 131.5,315.5C 133.833,315.5 136.167,315.5 138.5,315.5 Z"/></g>
<g><path style="opacity:0.686" fill="#929191" d="M 487.5,316.5 C 487.405,318.786 486.738,320.786 485.5,322.5C 485.259,320.102 485.926,318.102 487.5,316.5 Z"/></g>
<g><path style="opacity:1" fill="#b6b3b1" d="M 10.5,222.5 C 11.1667,234.5 11.8333,246.5 12.5,258.5C 15.6108,306.342 30.9441,349.675 58.5,388.5C 58.7373,389.791 58.404,390.791 57.5,391.5C 49.3757,380.366 42.0424,368.7 35.5,356.5C 14.8827,314.13 6.5494,269.464 10.5,222.5 Z"/></g>
<g><path style="opacity:1" fill="#41484a" d="M 146.5,316.5 C 155.983,340.255 165.316,364.255 174.5,388.5C 171.103,390.239 167.436,391.239 163.5,391.5C 162.5,391.167 161.5,390.833 160.5,390.5C 158.752,386.258 157.418,381.924 156.5,377.5C 155.5,377.5 154.5,377.5 153.5,377.5C 154.209,376.596 155.209,376.263 156.5,376.5C 156.666,371.821 156.499,367.155 156,362.5C 153.122,347.005 149.955,331.672 146.5,316.5 Z"/></g>
<g><path style="opacity:1" fill="#6b6f70" d="M 143.5,384.5 C 143.5,388.167 143.5,391.833 143.5,395.5C 139.423,395.735 135.423,396.402 131.5,397.5C 130.501,382.848 130.167,368.182 130.5,353.5C 131.329,345.343 131.829,337.01 132,328.5C 133.826,336.804 135.493,345.137 137,353.5C 138,355.5 139,357.5 140,359.5C 141.639,367.913 142.805,376.246 143.5,384.5 Z"/></g>
<g><path style="opacity:1" fill="#252424" d="M 252.5,333.5 C 253.488,337.484 254.488,341.484 255.5,345.5C 253.11,347.02 250.443,348.02 247.5,348.5C 247.334,339.827 247.5,331.16 248,322.5C 248.755,326.58 250.255,330.246 252.5,333.5 Z"/></g>
<g><path style="opacity:1" fill="#a2a5a7" d="M 236.5,297.5 C 236.334,305.507 236.5,313.507 237,321.5C 240.056,339.229 243.389,356.896 247,374.5C 247.174,369.649 247.674,364.982 248.5,360.5C 248.666,365.844 248.499,371.177 248,376.5C 243.961,377.756 239.794,378.423 235.5,378.5C 235.169,351.328 235.502,324.328 236.5,297.5 Z"/></g>
<g><path style="opacity:0.362" fill="#e0e0e1" d="M 485.5,323.5 C 485.938,323.435 486.272,323.601 486.5,324C 485.106,328.072 483.94,332.238 483,336.5C 482.156,340.229 480.656,343.563 478.5,346.5C 477.833,346.833 477.167,347.167 476.5,347.5C 479.514,339.398 482.514,331.398 485.5,323.5 Z"/></g>
<g><path style="opacity:1" fill="#adacaa" d="M 43.5,319.5 C 48.5412,330.584 53.8745,341.584 59.5,352.5C 61.9035,362.733 63.4035,373.066 64,383.5C 61.6667,380.5 59.3333,377.5 57,374.5C 56.5831,375.756 55.7498,376.423 54.5,376.5C 52.347,374.206 50.6803,371.54 49.5,368.5C 50.1471,367.726 50.4805,366.726 50.5,365.5C 47.5122,350.264 45.1789,334.931 43.5,319.5 Z"/></g>
<g><path style="opacity:1" fill="#8a8d91" d="M 379.5,340.5 C 380.568,341.434 381.901,341.768 383.5,341.5C 383.952,344.876 384.618,348.209 385.5,351.5C 382.232,352.487 378.898,352.82 375.5,352.5C 374.5,352.5 373.5,352.5 372.5,352.5C 371.833,347.833 371.167,343.167 370.5,338.5C 373.426,339.461 376.426,340.127 379.5,340.5 Z"/></g>
<g><path style="opacity:1" fill="#6c6f75" d="M 452.5,318.5 C 453.041,326.158 453.541,333.825 454,341.5C 454.279,344.457 455.113,347.123 456.5,349.5C 454.452,354.599 452.118,359.599 449.5,364.5C 449.846,365.696 450.346,365.696 451,364.5C 456.148,355.2 460.982,345.866 465.5,336.5C 465.194,339.385 465.527,342.052 466.5,344.5C 454.967,370.9 438.967,394.234 418.5,414.5C 418.843,412.517 418.176,411.183 416.5,410.5C 423.325,402.197 430.158,393.864 437,385.5C 437.667,384.833 437.667,384.167 437,383.5C 434.932,385.396 433.099,387.396 431.5,389.5C 430.176,384.247 429.176,378.913 428.5,373.5C 428.253,372.287 427.586,371.62 426.5,371.5C 437.576,355.014 446.243,337.348 452.5,318.5 Z"/></g>
<g><path style="opacity:1" fill="#211f1f" d="M 142.5,340.5 C 145.484,348.385 148.484,356.385 151.5,364.5C 149.709,365.17 148.042,365.837 146.5,366.5C 145.167,366.5 143.833,366.5 142.5,366.5C 142.5,357.833 142.5,349.167 142.5,340.5 Z"/></g>
<g><path style="opacity:1" fill="#a1a09f" d="M 59.5,352.5 C 64.4871,359.796 69.4871,367.13 74.5,374.5C 75.1733,381.866 76.1733,389.199 77.5,396.5C 77.1667,397.167 76.8333,397.833 76.5,398.5C 74.3333,396.167 72.1667,393.833 70,391.5C 71.8769,394.005 72.7102,397.005 72.5,400.5C 65.3529,393.354 59.3529,385.354 54.5,376.5C 55.7498,376.423 56.5831,375.756 57,374.5C 59.3333,377.5 61.6667,380.5 64,383.5C 63.4035,373.066 61.9035,362.733 59.5,352.5 Z"/></g>
<g><path style="opacity:1" fill="#444241" d="M 35.5,356.5 C 42.0424,368.7 49.3757,380.366 57.5,391.5C 58.1667,392.5 58.8333,393.5 59.5,394.5C 58.8501,394.804 58.1835,395.137 57.5,395.5C 48.5316,384.864 41.1983,373.197 35.5,360.5C 35.4431,359.391 35.1098,358.391 34.5,357.5C 35.1667,357.5 35.5,357.167 35.5,356.5 Z"/></g>
<g><path style="opacity:1" fill="#898c90" d="M 426.5,371.5 C 427.586,371.62 428.253,372.287 428.5,373.5C 429.176,378.913 430.176,384.247 431.5,389.5C 423.212,400.123 414.212,410.123 404.5,419.5C 404.716,412.375 403.883,405.375 402,398.5C 401.329,399.252 400.496,399.586 399.5,399.5C 409.2,390.801 418.2,381.467 426.5,371.5 Z"/></g>
<g><path style="opacity:0.987" fill="#767a7f" d="M 478.5,346.5 C 468.53,368.449 456.03,388.783 441,407.5C 437.251,411.42 433.417,415.086 429.5,418.5C 428.732,417.737 428.232,416.737 428,415.5C 427.329,414.748 426.496,414.414 425.5,414.5C 438.201,401.3 450.368,387.633 462,373.5C 467.143,364.869 471.976,356.202 476.5,347.5C 477.167,347.167 477.833,346.833 478.5,346.5 Z"/></g>
<g><path style="opacity:1" fill="#9fa1a4" d="M 404.5,419.5 C 398.798,426.203 392.464,432.203 385.5,437.5C 385.404,431.802 384.904,426.135 384,420.5C 383.148,419.429 382.315,418.429 381.5,417.5C 386.614,410.597 392.614,404.597 399.5,399.5C 400.496,399.586 401.329,399.252 402,398.5C 403.883,405.375 404.716,412.375 404.5,419.5 Z"/></g>
<g><path style="opacity:1" fill="#6e7272" d="M 98.5,400.5 C 106.256,407.927 114.59,414.593 123.5,420.5C 124.27,426.735 125.27,432.901 126.5,439C 125.833,439.333 125.167,439.667 124.5,440C 125.99,440.745 126.99,441.912 127.5,443.5C 127.253,444.713 126.586,445.38 125.5,445.5C 121.583,443.588 117.917,441.255 114.5,438.5C 113.549,439.326 112.549,439.492 111.5,439C 107.641,435.968 103.974,432.802 100.5,429.5C 101.979,426.857 101.646,424.357 99.5,422C 100.449,421.383 101.282,421.549 102,422.5C 101.98,415.012 100.813,407.678 98.5,400.5 Z"/></g>
<g><path style="opacity:1" fill="#898a8a" d="M 74.5,374.5 C 82.1321,383.467 90.1321,392.134 98.5,400.5C 100.813,407.678 101.98,415.012 102,422.5C 101.282,421.549 100.449,421.383 99.5,422C 101.646,424.357 101.979,426.857 100.5,429.5C 89.7728,421.107 80.4394,411.441 72.5,400.5C 72.7102,397.005 71.8769,394.005 70,391.5C 72.1667,393.833 74.3333,396.167 76.5,398.5C 76.8333,397.833 77.1667,397.167 77.5,396.5C 76.1733,389.199 75.1733,381.866 74.5,374.5 Z"/></g>
<g><path style="opacity:1" fill="#898c8f" d="M 425.5,414.5 C 426.496,414.414 427.329,414.748 428,415.5C 428.232,416.737 428.732,417.737 429.5,418.5C 429.631,419.239 429.464,419.906 429,420.5C 422.63,426.706 416.13,432.706 409.5,438.5C 409.44,437.957 409.107,437.624 408.5,437.5C 406.313,439.422 403.98,441.088 401.5,442.5C 401.204,440.597 400.537,438.93 399.5,437.5C 408.141,429.862 416.808,422.195 425.5,414.5 Z"/></g>
<g><path style="opacity:1" fill="#90908f" d="M 58.5,388.5 C 70.3925,404.063 83.7258,418.397 98.5,431.5C 97.3473,432.313 97.3473,433.313 98.5,434.5C 98.0431,435.298 97.3764,435.631 96.5,435.5C 81.3655,423.733 69.0322,410.066 59.5,394.5C 58.8333,393.5 58.1667,392.5 57.5,391.5C 58.404,390.791 58.7373,389.791 58.5,388.5 Z"/></g>
<g><path style="opacity:1" fill="#5b6061" d="M 123.5,420.5 C 126.997,423.083 130.664,425.416 134.5,427.5C 137.087,433.612 138.087,439.945 137.5,446.5C 136.549,445.674 135.549,445.508 134.5,446C 136.381,447.102 138.048,448.435 139.5,450C 140.515,451.373 140.515,452.54 139.5,453.5C 134.5,451.336 129.833,448.669 125.5,445.5C 126.586,445.38 127.253,444.713 127.5,443.5C 126.99,441.912 125.99,440.745 124.5,440C 125.167,439.667 125.833,439.333 126.5,439C 125.27,432.901 124.27,426.735 123.5,420.5 Z"/></g>
<g><path style="opacity:1" fill="#b6b8ba" d="M 381.5,417.5 C 382.315,418.429 383.148,419.429 384,420.5C 384.904,426.135 385.404,431.802 385.5,437.5C 376.66,445.087 366.993,451.421 356.5,456.5C 355.5,449.835 354.5,443.168 353.5,436.5C 352.5,436.5 351.5,436.5 350.5,436.5C 361.233,430.96 371.566,424.626 381.5,417.5 Z"/></g>
<g><path style="opacity:1" fill="#737676" d="M 98.5,431.5 C 110.303,440.977 122.636,449.644 135.5,457.5C 135.631,458.376 135.298,459.043 134.5,459.5C 131.42,458.211 128.586,456.545 126,454.5C 125.617,455.056 125.117,455.389 124.5,455.5C 114.425,449.803 105.091,443.136 96.5,435.5C 97.3764,435.631 98.0431,435.298 98.5,434.5C 97.3473,433.313 97.3473,432.313 98.5,431.5 Z"/></g>
<g><path style="opacity:1" fill="#404649" d="M 134.5,427.5 C 147.842,435.508 161.842,441.841 176.5,446.5C 176.012,452.12 176.679,457.787 178.5,463.5C 174.508,462.329 170.508,461.495 166.5,461C 173.571,463.632 180.571,466.132 187.5,468.5C 186.596,469.209 186.263,470.209 186.5,471.5C 187.791,471.263 188.791,471.596 189.5,472.5C 171.851,468.51 155.185,462.176 139.5,453.5C 140.515,452.54 140.515,451.373 139.5,450C 138.048,448.435 136.381,447.102 134.5,446C 135.549,445.508 136.549,445.674 137.5,446.5C 138.087,439.945 137.087,433.612 134.5,427.5 Z"/></g>
<g><path style="opacity:1" fill="#8c8e91" d="M 416.5,410.5 C 418.176,411.183 418.843,412.517 418.5,414.5C 407.196,427.436 394.196,437.936 379.5,446C 392.639,435.028 404.972,423.195 416.5,410.5 Z"/></g>
<g><path style="opacity:1" fill="#596062" d="M 176.5,446.5 C 184.594,448.844 192.594,451.177 200.5,453.5C 199.5,453.5 198.5,453.5 197.5,453.5C 197.845,458.878 198.512,464.211 199.5,469.5C 192.271,467.946 185.271,465.946 178.5,463.5C 176.679,457.787 176.012,452.12 176.5,446.5 Z"/></g>
<g><path style="opacity:1" fill="#cccecf" d="M 350.5,436.5 C 351.5,436.5 352.5,436.5 353.5,436.5C 354.5,443.168 355.5,449.835 356.5,456.5C 352.962,458.769 349.295,460.769 345.5,462.5C 334.216,466.428 322.883,470.261 311.5,474C 323.125,472.038 334.459,468.872 345.5,464.5C 351.155,462.504 356.822,460.504 362.5,458.5C 338.342,471.995 312.342,480.328 284.5,483.5C 281.615,483.806 278.948,483.473 276.5,482.5C 282.808,481.002 289.141,479.502 295.5,478C 293.19,477.503 290.857,477.337 288.5,477.5C 285.833,477.5 283.167,477.5 280.5,477.5C 280.5,476.167 280.5,474.833 280.5,473.5C 281.791,473.737 282.791,473.404 283.5,472.5C 290.678,471.364 297.678,469.531 304.5,467C 299.215,467.754 293.882,468.588 288.5,469.5C 287.503,469.53 286.836,469.03 286.5,468C 285.103,464.592 284.603,461.092 285,457.5C 286.302,456.915 287.469,456.249 288.5,455.5C 309.963,451.636 330.63,445.303 350.5,436.5 Z"/></g>
<g><path style="opacity:1" fill="#717678" d="M 200.5,453.5 C 207.289,454.87 213.956,456.203 220.5,457.5C 219.167,457.5 217.833,457.5 216.5,457.5C 217.167,462.167 217.833,466.833 218.5,471.5C 219.791,471.263 220.791,471.596 221.5,472.5C 214.094,472.019 206.761,471.019 199.5,469.5C 198.512,464.211 197.845,458.878 197.5,453.5C 198.5,453.5 199.5,453.5 200.5,453.5 Z"/></g>
<g><path style="opacity:1" fill="#84888a" d="M 220.5,457.5 C 225.518,458.102 230.518,458.768 235.5,459.5C 235.779,464.227 236.446,468.893 237.5,473.5C 243.833,473.5 250.167,473.5 256.5,473.5C 244.922,474.867 233.255,474.533 221.5,472.5C 220.791,471.596 219.791,471.263 218.5,471.5C 217.833,466.833 217.167,462.167 216.5,457.5C 217.833,457.5 219.167,457.5 220.5,457.5 Z"/></g>
<g><path style="opacity:1" fill="#b6b8ba" d="M 288.5,455.5 C 287.469,456.249 286.302,456.915 285,457.5C 284.603,461.092 285.103,464.592 286.5,468C 286.836,469.03 287.503,469.53 288.5,469.5C 281.09,471.453 273.424,472.453 265.5,472.5C 265.116,468.253 264.449,464.086 263.5,460C 265.708,459.809 267.708,459.309 269.5,458.5C 275.847,457.593 282.18,456.593 288.5,455.5 Z"/></g>
<g><path style="opacity:1" fill="#9ea2a4" d="M 269.5,458.5 C 267.708,459.309 265.708,459.809 263.5,460C 264.449,464.086 265.116,468.253 265.5,472.5C 264.833,472.5 264.5,472.833 264.5,473.5C 261.833,473.5 259.167,473.5 256.5,473.5C 250.167,473.5 243.833,473.5 237.5,473.5C 236.446,468.893 235.779,464.227 235.5,459.5C 246.852,459.627 258.185,459.294 269.5,458.5 Z"/></g>
<g><path style="opacity:0.992" fill="#2e2c2c" d="M 409.5,438.5 C 372.88,469.633 330.546,488.633 282.5,495.5C 284.076,494.857 285.41,493.857 286.5,492.5C 294.532,491.233 302.532,489.733 310.5,488C 309.667,487.833 308.833,487.667 308,487.5C 293.272,489.945 278.439,491.278 263.5,491.5C 263.5,491.167 263.5,490.833 263.5,490.5C 274.383,489.811 285.05,488.478 295.5,486.5C 334.499,480.181 369.832,465.514 401.5,442.5C 403.98,441.088 406.313,439.422 408.5,437.5C 409.107,437.624 409.44,437.957 409.5,438.5 Z"/></g>
<g><path style="opacity:1" fill="#363435" d="M 345.5,462.5 C 345.5,463.167 345.5,463.833 345.5,464.5C 334.459,468.872 323.125,472.038 311.5,474C 322.883,470.261 334.216,466.428 345.5,462.5 Z"/></g>
<g><path style="opacity:1" fill="#252425" d="M 178.5,463.5 C 185.271,465.946 192.271,467.946 199.5,469.5C 206.761,471.019 214.094,472.019 221.5,472.5C 233.255,474.533 244.922,474.867 256.5,473.5C 259.167,473.5 261.833,473.5 264.5,473.5C 266.099,473.232 267.432,473.566 268.5,474.5C 263.195,475.194 257.862,475.528 252.5,475.5C 243.5,475.5 234.5,475.5 225.5,475.5C 212.842,473.735 200.175,471.401 187.5,468.5C 180.571,466.132 173.571,463.632 166.5,461C 170.508,461.495 174.508,462.329 178.5,463.5 Z"/></g>
<g><path style="opacity:1" fill="#b4b6b8" d="M 399.5,437.5 C 400.537,438.93 401.204,440.597 401.5,442.5C 369.832,465.514 334.499,480.181 295.5,486.5C 294.508,486.672 293.842,486.338 293.5,485.5C 318.942,480.777 342.942,472.11 365.5,459.5C 377.174,452.665 388.507,445.332 399.5,437.5 Z"/></g>
<g><path style="opacity:1" fill="#414041" d="M 283.5,472.5 C 278.516,473.275 273.516,473.942 268.5,474.5C 267.432,473.566 266.099,473.232 264.5,473.5C 264.5,472.833 264.833,472.5 265.5,472.5C 273.424,472.453 281.09,471.453 288.5,469.5C 293.882,468.588 299.215,467.754 304.5,467C 297.678,469.531 290.678,471.364 283.5,472.5 Z"/></g>
<g><path style="opacity:1" fill="#686e70" d="M 187.5,468.5 C 200.175,471.401 212.842,473.735 225.5,475.5C 223.396,475.201 221.396,475.534 219.5,476.5C 220.602,477.176 221.602,477.842 222.5,478.5C 211.222,477.795 200.222,475.795 189.5,472.5C 188.791,471.596 187.791,471.263 186.5,471.5C 186.263,470.209 186.596,469.209 187.5,468.5 Z"/></g>
<g><path style="opacity:1" fill="#838688" d="M 225.5,475.5 C 234.5,475.5 243.5,475.5 252.5,475.5C 249.038,476.482 245.371,476.815 241.5,476.5C 241.5,477.5 241.5,478.5 241.5,479.5C 249.5,479.5 257.5,479.5 265.5,479.5C 251.266,480.969 236.933,480.635 222.5,478.5C 221.602,477.842 220.602,477.176 219.5,476.5C 221.396,475.534 223.396,475.201 225.5,475.5 Z"/></g>
<g><path style="opacity:1" fill="#a7aaac" d="M 283.5,472.5 C 282.791,473.404 281.791,473.737 280.5,473.5C 280.5,474.833 280.5,476.167 280.5,477.5C 283.167,477.5 285.833,477.5 288.5,477.5C 281.031,478.762 273.365,479.429 265.5,479.5C 257.5,479.5 249.5,479.5 241.5,479.5C 241.5,478.5 241.5,477.5 241.5,476.5C 245.371,476.815 249.038,476.482 252.5,475.5C 257.862,475.528 263.195,475.194 268.5,474.5C 273.516,473.942 278.516,473.275 283.5,472.5 Z"/></g>
<g><path style="opacity:1" fill="#444a4c" d="M 135.5,457.5 C 146.897,463.693 158.731,469.026 171,473.5C 171.5,473.333 172,473.167 172.5,473C 164.998,470.054 157.665,466.721 150.5,463C 151,462.833 151.5,462.667 152,462.5C 168.936,470.268 186.436,475.935 204.5,479.5C 203.5,479.5 202.5,479.5 201.5,479.5C 201.5,480.5 201.5,481.5 201.5,482.5C 203.415,482.216 205.081,482.549 206.5,483.5C 181.517,480.507 157.85,472.841 135.5,460.5C 131.378,460.28 127.711,458.614 124.5,455.5C 125.117,455.389 125.617,455.056 126,454.5C 128.586,456.545 131.42,458.211 134.5,459.5C 135.298,459.043 135.631,458.376 135.5,457.5 Z"/></g>
<g><path style="opacity:1" fill="#73787a" d="M 204.5,479.5 C 217.414,481.628 230.414,482.961 243.5,483.5C 243.5,484.167 243.5,484.833 243.5,485.5C 231.159,484.958 218.826,484.291 206.5,483.5C 205.081,482.549 203.415,482.216 201.5,482.5C 201.5,481.5 201.5,480.5 201.5,479.5C 202.5,479.5 203.5,479.5 204.5,479.5 Z"/></g>
<g><path style="opacity:1" fill="#a4a7a8" d="M 276.5,482.5 C 278.948,483.473 281.615,483.806 284.5,483.5C 271.034,485.109 257.367,485.776 243.5,485.5C 243.5,484.833 243.5,484.167 243.5,483.5C 254.521,483.653 265.521,483.32 276.5,482.5 Z"/></g>
<g><path style="opacity:1" fill="#54595b" d="M 211.5,488.5 C 210.662,488.842 210.328,489.508 210.5,490.5C 199.326,488.03 188.326,484.863 177.5,481C 188.934,483.319 200.267,485.819 211.5,488.5 Z"/></g>
<g><path style="opacity:1" fill="#999b9d" d="M 293.5,485.5 C 293.842,486.338 294.508,486.672 295.5,486.5C 285.05,488.478 274.383,489.811 263.5,490.5C 255.826,490.666 248.159,490.5 240.5,490C 248.011,489.829 255.345,489.329 262.5,488.5C 272.903,488.156 283.237,487.156 293.5,485.5 Z"/></g>
<g><path style="opacity:1" fill="#767a7c" d="M 211.5,488.5 C 212.833,488.5 214.167,488.5 215.5,488.5C 222.139,489.72 228.805,490.72 235.5,491.5C 234.167,491.5 233.5,492.167 233.5,493.5C 225.757,493.01 218.09,492.01 210.5,490.5C 210.328,489.508 210.662,488.842 211.5,488.5 Z"/></g>
<g><path style="opacity:1" fill="#484849" d="M 262.5,488.5 C 255.345,489.329 248.011,489.829 240.5,490C 248.159,490.5 255.826,490.666 263.5,490.5C 263.5,490.833 263.5,491.167 263.5,491.5C 254.167,491.5 244.833,491.5 235.5,491.5C 228.805,490.72 222.139,489.72 215.5,488.5C 217.199,488.66 218.866,488.494 220.5,488C 217.471,487.461 214.471,486.794 211.5,486C 212.5,485.833 213.5,485.667 214.5,485.5C 230.387,488.131 246.387,489.131 262.5,488.5 Z"/></g>
<g><path style="opacity:1" fill="#a1a4a6" d="M 286.5,492.5 C 268.707,494.496 251.041,494.829 233.5,493.5C 233.5,492.167 234.167,491.5 235.5,491.5C 244.833,491.5 254.167,491.5 263.5,491.5C 278.439,491.278 293.272,489.945 308,487.5C 308.833,487.667 309.667,487.833 310.5,488C 302.532,489.733 294.532,491.233 286.5,492.5 Z"/></g>
</svg>
