<?xml version="1.0" encoding="UTF-8"?> <!-- Generator: Adobe Illustrator 25.0.0, SVG Export Plug-In . SVG Version: 6.00 Build 0) --> <svg xmlns="http://www.w3.org/2000/svg" xmlns:xlink="http://www.w3.org/1999/xlink" version="1.1" id="Layer_1" x="0px" y="0px" viewBox="0 0 250 207.5" style="enable-background:new 0 0 250 207.5;" xml:space="preserve"> <style type="text/css"> .st0{fill:#FFFFFF;} </style> <g> <path d="M19.4,72.8c16-6.2,31.8-12.4,47.7-18.6c38-14.8,76-29.5,113.9-44.3c5.7-2.2,11.2-4.6,16.7-7.3c10.6-5.3,21.9-2.6,30.1,7.5 c8.6,10.7,12.7,23.4,15.7,36.5c7.8,33.4,8.3,67.1,2.8,100.8c-2.4,14.7-5.9,29.1-13.3,42.3c-5.3,9.4-12.1,17.9-23.7,17.7 c-7.3-0.1-14.8-2.8-21.7-5.5c-21.3-8.1-42.5-16.8-63.7-25.1c-1.4-0.5-4.2-0.1-4.9,0.9c-8.5,12.8-25.1,13.4-36.5,8.8 c-15.7-6.3-25.8-18-30-34.6c-0.7-2.8-1.8-4.7-4.8-5.8c-9.5-3.6-19-7.5-28.5-11.3c-0.8,1-1.5,1.8-2.2,2.6c-3.2,3.5-7.1,3.6-9.6-0.5 c-2.1-3.4-3.7-7.2-4.7-11c-4-15.7-3.8-31.5,0.7-47.1c0.4-1.4,1-2.8,1.6-4.2C8.8,66.4,13,65.7,19.4,72.8z M187.3,111.3 c0.8,7.6,1.8,22.5,4.1,37.3c1.8,12.2,5,24.2,12.5,34.4c3.7,5.1,4.9,5.1,8.8-0.1c6.2-8.3,9.1-18,11.1-27.9 c7.1-34.2,7.1-68.4,0-102.5c-2.2-10.5-5.3-20.7-12.3-29.3c-2.3-2.9-4.6-3.3-6.6,0.1c-2.7,4.6-5.8,9.1-7.6,14 C189.2,58.8,187.8,81.3,187.3,111.3z M64.6,153.1c2.8,13.6,20.3,27.1,32.8,25.9c5.1-0.5,10.2-1.6,12.9-7.7 C95.1,165.2,80.2,159.3,64.6,153.1z"></path> <path class="st0" d="M187.3,111.3c0.5-30,1.8-52.6,9.9-74c1.9-4.9,4.9-9.4,7.6-14c2-3.4,4.2-3,6.6-0.1c6.9,8.6,10.1,18.8,12.3,29.3 c7.2,34.1,7.2,68.4,0,102.5c-2.1,9.9-5,19.6-11.1,27.9c-3.9,5.2-5.1,5.2-8.8,0.1c-7.4-10.3-10.6-22.3-12.5-34.4 C189.2,133.9,188.1,118.9,187.3,111.3z"></path> <path class="st0" d="M64.6,153.1c15.6,6.2,30.5,12.1,45.8,18.2c-2.7,6.1-7.8,7.3-12.9,7.7C84.9,180.2,67.4,166.7,64.6,153.1z"></path> </g> </svg> 