<?xml version="1.0" encoding="UTF-8"?><svg id="Layer_1" xmlns="http://www.w3.org/2000/svg" viewBox="0 0 157.9 53.87"><defs><style>.cls-1{fill:#ec008c;}.cls-2{fill:#c1d82f;}.cls-3{fill:#717073;}</style></defs><g><g><path class="cls-3" d="M56.62,29.65v8.91h-5.37v-8.91l-6.6-12.96h5.87l3.44,7.86,3.41-7.86h5.87l-6.6,12.96Z"/><path class="cls-3" d="M69.21,38.74c-3.35,0-6.08-.61-8.29-2.89l3.44-3.44c1.14,1.14,3.13,1.54,4.88,1.54,2.12,0,3.13-.71,3.13-1.97,0-.52-.12-.95-.43-1.29-.28-.28-.74-.49-1.44-.58l-2.64-.37c-1.93-.28-3.41-.92-4.39-1.93-1.01-1.04-1.51-2.52-1.51-4.39,0-3.99,3.01-6.91,7.99-6.91,3.13,0,5.5,.74,7.37,2.61l-3.38,3.38c-1.38-1.38-3.19-1.29-4.15-1.29-1.87,0-2.64,1.08-2.64,2.03,0,.28,.09,.68,.43,1.01,.28,.28,.74,.55,1.51,.64l2.64,.37c1.97,.28,3.38,.89,4.3,1.81,1.17,1.14,1.63,2.77,1.63,4.79,0,4.45-3.84,6.88-8.45,6.88Z"/><path class="cls-3" d="M86.96,38.74c-2.55,0-4.48-.86-6.08-2.46-2.3-2.3-2.21-5.37-2.21-8.66s-.09-6.36,2.21-8.66c1.6-1.6,3.53-2.46,6.08-2.46,4.15,0,7.5,2.3,8.29,7.13h-5.47c-.34-1.23-1.01-2.33-2.79-2.33-.98,0-1.72,.4-2.12,.92-.49,.64-.83,1.41-.83,5.41s.34,4.76,.83,5.41c.4,.52,1.14,.92,2.12,.92,1.78,0,2.46-1.11,2.79-2.33h5.47c-.8,4.82-4.15,7.12-8.29,7.12Z"/></g><g><path class="cls-3" d="M101.72,26.61h-.4v-2.19l-1.56-3.09h.43l1.34,2.67,1.31-2.67h.43l-1.56,3.09v2.19Z"/><path class="cls-3" d="M107.02,26.12c-.35,.35-.82,.54-1.32,.54s-.97-.19-1.32-.54c-.48-.48-.49-.96-.49-2.14s0-1.66,.49-2.14c.35-.35,.82-.54,1.32-.54s.97,.19,1.32,.54c.48,.48,.49,.95,.49,2.14s0,1.66-.49,2.14Zm-.32-4.06c-.27-.27-.62-.41-1-.41s-.73,.14-1,.41c-.38,.38-.41,.79-.41,1.92s.03,1.54,.41,1.92c.27,.27,.62,.41,1,.41s.73-.14,1-.41c.38-.38,.41-.79,.41-1.92s-.03-1.54-.41-1.92Z"/><path class="cls-3" d="M110.67,26.66c-1.06,0-1.81-.73-1.81-1.76v-3.57h.4v3.51c0,.87,.56,1.45,1.41,1.45s1.41-.58,1.41-1.45v-3.51h.4v3.57c0,1.03-.75,1.76-1.81,1.76Z"/><path class="cls-3" d="M114.43,22.02v4.59h-.4v-5.28h.4l3.05,4.58v-4.58h.4v5.28h-.4l-3.05-4.59Z"/><path class="cls-3" d="M122.5,26.05c-.35,.39-.85,.61-1.39,.61-.5,0-.97-.19-1.32-.54-.48-.48-.49-.96-.49-2.14s0-1.66,.49-2.14c.35-.35,.82-.54,1.32-.54,.92,0,1.65,.62,1.8,1.54h-.4c-.16-.73-.69-1.19-1.4-1.19-.38,0-.73,.14-1,.41-.38,.38-.41,.79-.41,1.92s.03,1.54,.41,1.92c.27,.27,.62,.41,1,.41,.42,0,.82-.18,1.1-.51,.23-.29,.32-.59,.32-1.05v-.47h-1.42v-.36h1.82v.86c0,.56-.11,.94-.43,1.28Z"/><path class="cls-3" d="M127.54,26.66c-.78,0-1.28-.21-1.76-.7l.28-.28c.47,.47,.87,.62,1.5,.62,.84,0,1.36-.4,1.36-1.09,0-.32-.09-.57-.29-.74-.2-.16-.33-.22-.76-.28l-.62-.1c-.4-.06-.71-.19-.94-.39-.27-.23-.42-.56-.42-.97,0-.89,.62-1.45,1.64-1.45,.65,0,1.07,.18,1.52,.57l-.26,.26c-.31-.3-.66-.49-1.28-.49-.77,0-1.22,.42-1.22,1.09,0,.3,.09,.53,.27,.69,.19,.16,.49,.27,.79,.33l.57,.09c.5,.07,.73,.16,.94,.35,.29,.24,.46,.6,.46,1.02,0,.9-.68,1.46-1.78,1.46Z"/><path class="cls-3" d="M132.31,26.66c-1.06,0-1.81-.73-1.81-1.76v-3.57h.4v3.51c0,.87,.56,1.45,1.41,1.45s1.41-.58,1.41-1.45v-3.51h.4v3.57c0,1.03-.75,1.76-1.81,1.76Z"/><path class="cls-3" d="M137.53,24.18h-1.45v2.43h-.4v-5.28h2.01c.86,0,1.51,.5,1.51,1.42,0,.79-.47,1.3-1.22,1.42l1.28,2.44h-.47l-1.26-2.43Zm.1-2.49h-1.56v2.14h1.56c.68,0,1.17-.33,1.17-1.07s-.48-1.07-1.17-1.07Z"/><path class="cls-3" d="M141.54,26.61l-1.74-5.28h.42l1.48,4.58,1.48-4.58h.42l-1.74,5.28h-.34Z"/><path class="cls-3" d="M144.5,21.33h.4v5.28h-.4v-5.28Z"/><path class="cls-3" d="M147.52,26.61l-1.74-5.28h.42l1.48,4.58,1.48-4.58h.42l-1.74,5.28h-.34Z"/><path class="cls-3" d="M152.88,25.33h-2.46l-.46,1.28h-.43l1.94-5.28h.36l1.94,5.28h-.43l-.46-1.28Zm-2.34-.36h2.21l-1.1-3.11-1.1,3.11Z"/><path class="cls-3" d="M154.7,21.33h.4v4.92h2.8v.36h-3.2v-5.28Z"/></g><g><path class="cls-3" d="M102.11,34.29c-.5,0-.97-.19-1.32-.54-.48-.48-.49-.96-.49-2.14s0-1.66,.49-2.14c.35-.35,.81-.54,1.32-.54,.95,0,1.62,.59,1.79,1.54h-.41c-.16-.73-.67-1.19-1.39-1.19-.38,0-.73,.14-1,.41-.38,.38-.41,.79-.41,1.92s.03,1.54,.41,1.92c.27,.27,.62,.41,1,.41,.71,0,1.25-.45,1.4-1.19h.39c-.18,.95-.86,1.54-1.79,1.54Z"/><path class="cls-3" d="M108.2,33.75c-.35,.35-.82,.54-1.32,.54s-.97-.19-1.32-.54c-.48-.48-.49-.96-.49-2.14s0-1.66,.49-2.14c.35-.35,.82-.54,1.32-.54s.97,.19,1.32,.54c.48,.48,.49,.95,.49,2.14s0,1.66-.49,2.14Zm-.32-4.06c-.27-.27-.62-.41-1-.41s-.73,.14-1,.41c-.38,.38-.41,.79-.41,1.92s.03,1.54,.41,1.92c.27,.27,.62,.41,1,.41s.73-.14,1-.41c.38-.38,.41-.79,.41-1.92s-.03-1.54-.41-1.92Z"/><path class="cls-3" d="M112.69,32.96h-2.46l-.46,1.28h-.43l1.94-5.28h.36l1.94,5.28h-.43l-.46-1.28Zm-2.34-.36h2.21l-1.11-3.11-1.1,3.11Z"/><path class="cls-3" d="M114.51,28.97h.4v4.92h2.8v.36h-3.2v-5.28Z"/><path class="cls-3" d="M118.75,28.97h.4v5.28h-.4v-5.28Z"/><path class="cls-3" d="M122.16,34.25h-.4v-4.92h-1.57v-.36h3.55v.36h-1.58v4.92Z"/><path class="cls-3" d="M124.77,28.97h.4v5.28h-.4v-5.28Z"/><path class="cls-3" d="M129.72,33.75c-.35,.35-.82,.54-1.32,.54s-.97-.19-1.32-.54c-.48-.48-.49-.96-.49-2.14s0-1.66,.49-2.14c.35-.35,.82-.54,1.32-.54s.97,.19,1.32,.54c.48,.48,.49,.95,.49,2.14s0,1.66-.49,2.14Zm-.32-4.06c-.27-.27-.62-.41-1-.41s-.73,.14-1,.41c-.38,.38-.41,.79-.41,1.92s.03,1.54,.41,1.92c.27,.27,.62,.41,1,.41s.73-.14,1-.41c.38-.38,.41-.79,.41-1.92s-.03-1.54-.41-1.92Z"/><path class="cls-3" d="M132.03,29.66v4.59h-.4v-5.28h.4l3.05,4.58v-4.58h.4v5.28h-.4l-3.05-4.59Z"/></g><path class="cls-2" d="M5.65,53.87c3.12,0,5.65-2.53,5.65-5.66s-2.53-5.65-5.65-5.65-5.65,2.53-5.65,5.65,2.53,5.66,5.65,5.66"/><path class="cls-1" d="M13.54,44.91c2.9,0,5.26-2.35,5.26-5.26s-2.35-5.26-5.26-5.26-5.26,2.35-5.26,5.26,2.35,5.26,5.26,5.26"/><path class="cls-1" d="M19.8,35.87c2.63,0,4.76-2.13,4.76-4.76s-2.13-4.76-4.76-4.76-4.76,2.13-4.76,4.76,2.13,4.76,4.76,4.76"/><path class="cls-1" d="M24.59,27.14c2.36,0,4.28-1.92,4.28-4.28s-1.92-4.28-4.28-4.28-4.28,1.92-4.28,4.28,1.92,4.28,4.28,4.28"/><path class="cls-1" d="M27.75,18.65c2.34,0,4.24-1.9,4.24-4.24s-1.9-4.24-4.24-4.24-4.24,1.9-4.24,4.24,1.9,4.24,4.24,4.24"/><path class="cls-1" d="M25.31,10.02c2.22,0,4.03-1.8,4.03-4.03s-1.8-4.03-4.03-4.03-4.03,1.8-4.03,4.03,1.8,4.03,4.03,4.03"/><path class="cls-1" d="M17.3,7.65c2.11,0,3.82-1.71,3.82-3.83s-1.71-3.82-3.82-3.82-3.83,1.71-3.83,3.82,1.71,3.83,3.83,3.83"/><path class="cls-1" d="M12.64,14.79c2.22,0,4.03-1.8,4.03-4.03s-1.8-4.03-4.03-4.03-4.03,1.8-4.03,4.03,1.8,4.03,4.03,4.03"/><path class="cls-1" d="M16.54,22.79c2.34,0,4.24-1.9,4.24-4.24s-1.9-4.24-4.24-4.24-4.24,1.9-4.24,4.24,1.9,4.24,4.24,4.24"/><path class="cls-1" d="M31.57,31.88c2.14,0,3.87-1.73,3.87-3.87s-1.73-3.87-3.87-3.87-3.87,1.73-3.87,3.87,1.73,3.87,3.87,3.87"/><path class="cls-1" d="M37.77,35.87c1.83,0,3.31-1.48,3.31-3.31s-1.48-3.31-3.31-3.31-3.31,1.48-3.31,3.31,1.48,3.31,3.31,3.31"/><path class="cls-1" d="M43.84,39.09c1.73,0,3.14-1.41,3.14-3.14s-1.41-3.14-3.14-3.14-3.14,1.4-3.14,3.14,1.41,3.14,3.14,3.14"/></g><rect class="cls-2" x="97.13" y="16.76" width=".64" height="21.86"/><path class="cls-3" d="M137.21,30.41c-.42,0-.75-.34-.75-.75s.34-.75,.75-.75,.75,.34,.75,.75-.34,.75-.75,.75Zm0-1.39c-.35,0-.63,.29-.63,.64s.28,.64,.63,.64,.63-.29,.63-.64-.29-.64-.63-.64Zm.18,1.05l-.19-.34h-.12v.34h-.11v-.83h.28c.14,0,.26,.11,.26,.25,0,.12-.07,.2-.18,.23l.2,.35h-.13Zm-.16-.72h-.15v.29h.15c.09,0,.16-.06,.16-.14s-.06-.15-.16-.15Z"/></svg>